%TF.GenerationSoftware,KiCad,Pcbnew,8.0.8*%
%TF.CreationDate,2025-09-12T17:13:47+02:00*%
%TF.ProjectId,kiba,6b696261-2e6b-4696-9361-645f70636258,rev?*%
%TF.SameCoordinates,Original*%
%TF.FileFunction,Soldermask,Bot*%
%TF.FilePolarity,Negative*%
%FSLAX46Y46*%
G04 Gerber Fmt 4.6, Leading zero omitted, Abs format (unit mm)*
G04 Created by KiCad (PCBNEW 8.0.8) date 2025-09-12 17:13:47*
%MOMM*%
%LPD*%
G01*
G04 APERTURE LIST*
G04 Aperture macros list*
%AMFreePoly0*
4,1,19,0.550000,-0.750000,0.000000,-0.750000,0.000000,-0.744911,-0.071157,-0.744911,-0.207708,-0.704816,-0.327430,-0.627875,-0.420627,-0.520320,-0.479746,-0.390866,-0.500000,-0.250000,-0.500000,0.250000,-0.479746,0.390866,-0.420627,0.520320,-0.327430,0.627875,-0.207708,0.704816,-0.071157,0.744911,0.000000,0.744911,0.000000,0.750000,0.550000,0.750000,0.550000,-0.750000,0.550000,-0.750000,
$1*%
%AMFreePoly1*
4,1,19,0.000000,0.744911,0.071157,0.744911,0.207708,0.704816,0.327430,0.627875,0.420627,0.520320,0.479746,0.390866,0.500000,0.250000,0.500000,-0.250000,0.479746,-0.390866,0.420627,-0.520320,0.327430,-0.627875,0.207708,-0.704816,0.071157,-0.744911,0.000000,-0.744911,0.000000,-0.750000,-0.550000,-0.750000,-0.550000,0.750000,0.000000,0.750000,0.000000,0.744911,0.000000,0.744911,
$1*%
G04 Aperture macros list end*
%ADD10R,2.000000X2.000000*%
%ADD11C,2.000000*%
%ADD12C,5.600000*%
%ADD13R,1.700000X1.700000*%
%ADD14O,1.700000X1.700000*%
%ADD15FreePoly0,270.000000*%
%ADD16R,1.500000X1.000000*%
%ADD17FreePoly1,270.000000*%
G04 APERTURE END LIST*
D10*
%TO.C,BZ1*%
X160905785Y-85980000D03*
D11*
X155905785Y-85980000D03*
%TD*%
D12*
%TO.C,H2*%
X119085000Y-73220000D03*
%TD*%
D13*
%TO.C,J1*%
X167305000Y-78090000D03*
D14*
X169845000Y-78090000D03*
X167305000Y-80630000D03*
X169845000Y-80630000D03*
X167305000Y-83170000D03*
X169845000Y-83170000D03*
X167305000Y-85710000D03*
X169845000Y-85710000D03*
X167305000Y-88250000D03*
X169845000Y-88250000D03*
X167305000Y-90790000D03*
X169845000Y-90790000D03*
X167305000Y-93330000D03*
X169845000Y-93330000D03*
X167305000Y-95870000D03*
X169845000Y-95870000D03*
X167305000Y-98410000D03*
X169845000Y-98410000D03*
X167305000Y-100950000D03*
X169845000Y-100950000D03*
X167305000Y-103490000D03*
X169845000Y-103490000D03*
X167305000Y-106030000D03*
X169845000Y-106030000D03*
X167305000Y-108570000D03*
X169845000Y-108570000D03*
X167305000Y-111110000D03*
X169845000Y-111110000D03*
X167305000Y-113650000D03*
X169845000Y-113650000D03*
X167305000Y-116190000D03*
X169845000Y-116190000D03*
X167305000Y-118730000D03*
X169845000Y-118730000D03*
X167305000Y-121270000D03*
X169845000Y-121270000D03*
X167305000Y-123810000D03*
X169845000Y-123810000D03*
X167305000Y-126350000D03*
X169845000Y-126350000D03*
%TD*%
D12*
%TO.C,H3*%
X119085000Y-131220000D03*
%TD*%
%TO.C,H1*%
X168585000Y-73230000D03*
%TD*%
%TO.C,H4*%
X168595000Y-131220000D03*
%TD*%
D15*
%TO.C,JP7*%
X156485000Y-129820000D03*
D16*
X156485000Y-131120000D03*
D17*
X156485000Y-132420000D03*
%TD*%
D15*
%TO.C,JP6*%
X159352500Y-129790000D03*
D16*
X159352500Y-131090000D03*
D17*
X159352500Y-132390000D03*
%TD*%
D15*
%TO.C,JP2*%
X162225000Y-129780000D03*
D16*
X162225000Y-131080000D03*
D17*
X162225000Y-132380000D03*
%TD*%
M02*
