M48
; DRILL file {KiCad 8.0.8} date 2025-09-12T17:13:47+0200
; FORMAT={-:-/ absolute / inch / decimal}
; #@! TF.CreationDate,2025-09-12T17:13:47+02:00
; #@! TF.GenerationSoftware,Kicad,Pcbnew,8.0.8
; #@! TF.FileFunction,Plated,1,2,PTH
FMAT,2
INCH
; #@! TA.AperFunction,Plated,PTH,ViaDrill
T1C0.0118
; #@! TA.AperFunction,Plated,PTH,ComponentDrill
T2C0.0394
%
G90
G05
T1
X4.6736Y-4.3614
X4.7193Y-4.237
X4.7886Y-3.989
X4.8197Y-4.2425
X4.8441Y-4.1256
X4.8886Y-4.4453
X4.9039Y-3.7862
X4.9256Y-4.0791
X5.002Y-3.9484
X5.002Y-4.1642
X5.002Y-4.3461
X5.0331Y-4.1
X5.0382Y-3.9433
X5.0555Y-4.1484
X5.0573Y-4.0272
X5.0646Y-4.3429
X5.2315Y-3.2756
X5.2583Y-3.1043
X5.3039Y-4.1571
X5.3272Y-4.8807
X5.3398Y-3.2965
X5.385Y-5.1181
X5.3965Y-4.4571
X5.4012Y-3.3925
X5.4055Y-4.2055
X5.4118Y-4.6941
X5.4134Y-4.7953
X5.4283Y-3.9854
X5.4563Y-4.1781
X5.4575Y-3.8024
X5.4945Y-3.2264
X5.4984Y-5.0736
X5.5083Y-3.1252
X5.5339Y-4.4559
X5.548Y-4.2929
X5.5512Y-4.0035
X5.5559Y-3.4339
X5.5634Y-4.7016
X5.5689Y-4.2591
X5.5701Y-3.852
X5.574Y-4.9437
X5.5807Y-3.6957
X5.5835Y-4.1398
X5.5886Y-3.3925
X5.5925Y-4.2287
X5.5992Y-4.7953
X5.6024Y-5.2059
X5.6165Y-3.811
X5.6169Y-3.8917
X5.6228Y-4.3583
X5.6307Y-4.0299
X5.6791Y-3.3118
X5.6937Y-4.7461
X5.7169Y-4.1244
X5.7272Y-3.7598
X5.728Y-3.8264
X5.7717Y-5.0957
X5.7748Y-3.8283
X5.7752Y-3.7575
X5.7756Y-3.2504
X5.7988Y-4.7953
X5.8016Y-3.4874
X5.8177Y-4.4276
X5.8197Y-4.2815
X5.8386Y-4.1173
X5.8398Y-4.015
X5.8472Y-3.4382
X5.8474Y-5.1307
X5.8937Y-3.3913
X5.9382Y-3.3437
X5.9602Y-5.0209
X5.9604Y-3.148
X5.9696Y-3.2212
X5.9756Y-3.7972
X5.9841Y-3.0083
X5.9909Y-3.2988
X5.9976Y-4.1398
X6.0331Y-3.2551
X6.0402Y-3.0366
X6.0453Y-3.8059
X6.0724Y-3.2091
X6.0805Y-4.077
X6.0941Y-3.6224
X6.0951Y-5.1807
X6.1083Y-3.1787
X6.1122Y-4.3965
X6.1441Y-3.9047
X6.1484Y-3.1461
X6.161Y-5.0594
X6.1827Y-3.1075
X6.1894Y-4.8528
X6.1927Y-2.9709
X6.2185Y-3.0713
X6.2303Y-4.1079
X6.2352Y-5.2504
X6.2398Y-3.374
X6.2406Y-3.6126
X6.2417Y-5.0587
X6.2445Y-4.2606
X6.2504Y-2.7969
X6.2522Y-2.9709
X6.261Y-4.4976
X6.2933Y-4.1354
X6.301Y-2.9709
X6.3033Y-2.8791
X6.3335Y-5.0579
X6.3437Y-3.9177
X6.3453Y-4.2575
X6.3512Y-4.422
X6.372Y-3.9827
X6.39Y-5.2618
X6.4406Y-3.8425
X6.4433Y-4.0496
X6.4545Y-2.9429
X6.4703Y-2.9744
X6.4969Y-3.001
X6.5274Y-3.0217
T2
X6.138Y-3.385
X6.3349Y-3.385
X6.5868Y-3.0744
X6.5868Y-3.1744
X6.5868Y-3.2744
X6.5868Y-3.3744
X6.5868Y-3.4744
X6.5868Y-3.5744
X6.5868Y-3.6744
X6.5868Y-3.7744
X6.5868Y-3.8744
X6.5868Y-3.9744
X6.5868Y-4.0744
X6.5868Y-4.1744
X6.5868Y-4.2744
X6.5868Y-4.3744
X6.5868Y-4.4744
X6.5868Y-4.5744
X6.5868Y-4.6744
X6.5868Y-4.7744
X6.5868Y-4.8744
X6.5868Y-4.9744
X6.6868Y-3.0744
X6.6868Y-3.1744
X6.6868Y-3.2744
X6.6868Y-3.3744
X6.6868Y-3.4744
X6.6868Y-3.5744
X6.6868Y-3.6744
X6.6868Y-3.7744
X6.6868Y-3.8744
X6.6868Y-3.9744
X6.6868Y-4.0744
X6.6868Y-4.1744
X6.6868Y-4.2744
X6.6868Y-4.3744
X6.6868Y-4.4744
X6.6868Y-4.5744
X6.6868Y-4.6744
X6.6868Y-4.7744
X6.6868Y-4.8744
X6.6868Y-4.9744
M30
