%TF.GenerationSoftware,KiCad,Pcbnew,8.0.8*%
%TF.CreationDate,2025-09-08T09:45:39+02:00*%
%TF.ProjectId,kiba,6b696261-2e6b-4696-9361-645f70636258,rev?*%
%TF.SameCoordinates,Original*%
%TF.FileFunction,Soldermask,Top*%
%TF.FilePolarity,Negative*%
%FSLAX46Y46*%
G04 Gerber Fmt 4.6, Leading zero omitted, Abs format (unit mm)*
G04 Created by KiCad (PCBNEW 8.0.8) date 2025-09-08 09:45:39*
%MOMM*%
%LPD*%
G01*
G04 APERTURE LIST*
G04 Aperture macros list*
%AMRoundRect*
0 Rectangle with rounded corners*
0 $1 Rounding radius*
0 $2 $3 $4 $5 $6 $7 $8 $9 X,Y pos of 4 corners*
0 Add a 4 corners polygon primitive as box body*
4,1,4,$2,$3,$4,$5,$6,$7,$8,$9,$2,$3,0*
0 Add four circle primitives for the rounded corners*
1,1,$1+$1,$2,$3*
1,1,$1+$1,$4,$5*
1,1,$1+$1,$6,$7*
1,1,$1+$1,$8,$9*
0 Add four rect primitives between the rounded corners*
20,1,$1+$1,$2,$3,$4,$5,0*
20,1,$1+$1,$4,$5,$6,$7,0*
20,1,$1+$1,$6,$7,$8,$9,0*
20,1,$1+$1,$8,$9,$2,$3,0*%
G04 Aperture macros list end*
%ADD10RoundRect,0.200000X0.200000X0.275000X-0.200000X0.275000X-0.200000X-0.275000X0.200000X-0.275000X0*%
%ADD11RoundRect,0.225000X0.225000X0.250000X-0.225000X0.250000X-0.225000X-0.250000X0.225000X-0.250000X0*%
%ADD12RoundRect,0.200000X0.275000X-0.200000X0.275000X0.200000X-0.275000X0.200000X-0.275000X-0.200000X0*%
%ADD13R,0.300000X0.325000*%
%ADD14R,0.325000X0.300000*%
%ADD15R,0.450000X0.750000*%
%ADD16R,1.740000X1.350000*%
%ADD17RoundRect,0.225000X-0.250000X0.225000X-0.250000X-0.225000X0.250000X-0.225000X0.250000X0.225000X0*%
%ADD18R,1.955432X0.420766*%
%ADD19RoundRect,0.225000X-0.225000X-0.250000X0.225000X-0.250000X0.225000X0.250000X-0.225000X0.250000X0*%
%ADD20RoundRect,0.225000X0.250000X-0.225000X0.250000X0.225000X-0.250000X0.225000X-0.250000X-0.225000X0*%
%ADD21RoundRect,0.375000X0.625000X0.375000X-0.625000X0.375000X-0.625000X-0.375000X0.625000X-0.375000X0*%
%ADD22RoundRect,0.500000X0.500000X1.400000X-0.500000X1.400000X-0.500000X-1.400000X0.500000X-1.400000X0*%
%ADD23RoundRect,0.200000X-0.275000X0.200000X-0.275000X-0.200000X0.275000X-0.200000X0.275000X0.200000X0*%
%ADD24R,0.300000X0.500000*%
%ADD25R,2.000000X2.000000*%
%ADD26C,2.000000*%
%ADD27RoundRect,0.200000X-0.200000X-0.275000X0.200000X-0.275000X0.200000X0.275000X-0.200000X0.275000X0*%
%ADD28RoundRect,0.250000X0.250000X0.250000X-0.250000X0.250000X-0.250000X-0.250000X0.250000X-0.250000X0*%
%ADD29RoundRect,0.218750X-0.256250X0.218750X-0.256250X-0.218750X0.256250X-0.218750X0.256250X0.218750X0*%
%ADD30C,5.600000*%
%ADD31RoundRect,0.218750X0.256250X-0.218750X0.256250X0.218750X-0.256250X0.218750X-0.256250X-0.218750X0*%
%ADD32R,0.750000X0.450000*%
%ADD33R,1.350000X1.740000*%
%ADD34R,1.700000X1.700000*%
%ADD35O,1.700000X1.700000*%
%ADD36RoundRect,0.150000X-0.587500X-0.150000X0.587500X-0.150000X0.587500X0.150000X-0.587500X0.150000X0*%
G04 APERTURE END LIST*
D10*
%TO.C,R1*%
X139150000Y-104500000D03*
X137500000Y-104500000D03*
%TD*%
D11*
%TO.C,C14*%
X122110000Y-110945000D03*
X120560000Y-110945000D03*
%TD*%
D12*
%TO.C,R10*%
X147160000Y-81810000D03*
X147160000Y-80160000D03*
%TD*%
%TO.C,R3*%
X125460000Y-110395000D03*
X125460000Y-108745000D03*
%TD*%
D13*
%TO.C,U4*%
X121090000Y-108775000D03*
X121590000Y-108775000D03*
D14*
X122115000Y-108525000D03*
X122115000Y-108025000D03*
X122115000Y-107525000D03*
D13*
X121590000Y-107275000D03*
X121090000Y-107275000D03*
D14*
X120565000Y-107525000D03*
X120565000Y-108025000D03*
X120565000Y-108525000D03*
%TD*%
D15*
%TO.C,IC4*%
X145630000Y-79390000D03*
X144830000Y-79390000D03*
X144030000Y-79390000D03*
X144030000Y-81890000D03*
X144830000Y-81890000D03*
X145630000Y-81890000D03*
D16*
X144830000Y-80640000D03*
%TD*%
D17*
%TO.C,C5*%
X123880000Y-102045000D03*
X123880000Y-103595000D03*
%TD*%
D18*
%TO.C,U2*%
X139004616Y-107425001D03*
X139004616Y-108074999D03*
X139004616Y-108725001D03*
X139004616Y-109374999D03*
X139004616Y-110025001D03*
X139004616Y-110674999D03*
X139004616Y-111325001D03*
X139004616Y-111974999D03*
X144755384Y-111974999D03*
X144755384Y-111325001D03*
X144755384Y-110674999D03*
X144755384Y-110025001D03*
X144755384Y-109374999D03*
X144755384Y-108725001D03*
X144755384Y-108074999D03*
X144755384Y-107425001D03*
%TD*%
D19*
%TO.C,C12*%
X120035000Y-105160000D03*
X121585000Y-105160000D03*
%TD*%
D20*
%TO.C,C11*%
X136900000Y-128305000D03*
X136900000Y-126755000D03*
%TD*%
D10*
%TO.C,R15*%
X141935000Y-84440000D03*
X140285000Y-84440000D03*
%TD*%
D21*
%TO.C,U1*%
X161805000Y-77760000D03*
X161805000Y-75460000D03*
D22*
X155505000Y-75460000D03*
D21*
X161805000Y-73160000D03*
%TD*%
D23*
%TO.C,R11*%
X128325000Y-71560000D03*
X128325000Y-73210000D03*
%TD*%
D19*
%TO.C,C9*%
X157245000Y-110830000D03*
X158795000Y-110830000D03*
%TD*%
D23*
%TO.C,R4*%
X125460000Y-105705000D03*
X125460000Y-107355000D03*
%TD*%
D24*
%TO.C,IC1*%
X141480000Y-103910000D03*
X142280000Y-103910000D03*
X142280000Y-102510000D03*
X141480000Y-102510000D03*
%TD*%
D11*
%TO.C,C18*%
X145655000Y-83340000D03*
X144105000Y-83340000D03*
%TD*%
D23*
%TO.C,R16*%
X154420000Y-105705000D03*
X154420000Y-107355000D03*
%TD*%
D25*
%TO.C,BZ1*%
X160905785Y-85980000D03*
D26*
X155905785Y-85980000D03*
%TD*%
D27*
%TO.C,R19*%
X137505000Y-123650000D03*
X139155000Y-123650000D03*
%TD*%
D15*
%TO.C,IC6*%
X145740000Y-126680000D03*
X144940000Y-126680000D03*
X144140000Y-126680000D03*
X144140000Y-129180000D03*
X144940000Y-129180000D03*
X145740000Y-129180000D03*
D16*
X144940000Y-127930000D03*
%TD*%
D10*
%TO.C,R6*%
X122350000Y-100310000D03*
X120700000Y-100310000D03*
%TD*%
D19*
%TO.C,C3*%
X154980000Y-71060000D03*
X156530000Y-71060000D03*
%TD*%
D28*
%TO.C,D1*%
X159785000Y-93430000D03*
X157285000Y-93430000D03*
%TD*%
D17*
%TO.C,C2*%
X153445000Y-74275000D03*
X153445000Y-75825000D03*
%TD*%
D13*
%TO.C,U5*%
X158825000Y-107167500D03*
X158325000Y-107167500D03*
D14*
X157800000Y-107417500D03*
X157800000Y-107917500D03*
X157800000Y-108417500D03*
D13*
X158325000Y-108667500D03*
X158825000Y-108667500D03*
D14*
X159350000Y-108417500D03*
X159350000Y-107917500D03*
X159350000Y-107417500D03*
%TD*%
D29*
%TO.C,D3*%
X129875000Y-71597500D03*
X129875000Y-73172500D03*
%TD*%
D12*
%TO.C,R17*%
X154420000Y-110385000D03*
X154420000Y-108735000D03*
%TD*%
D14*
%TO.C,U6*%
X140490000Y-128360000D03*
X140490000Y-127860000D03*
D13*
X140240000Y-127335000D03*
X139740000Y-127335000D03*
X139240000Y-127335000D03*
D14*
X138990000Y-127860000D03*
X138990000Y-128360000D03*
D13*
X139240000Y-128885000D03*
X139740000Y-128885000D03*
X140240000Y-128885000D03*
%TD*%
D17*
%TO.C,C20*%
X161120000Y-101945000D03*
X161120000Y-103495000D03*
%TD*%
D30*
%TO.C,H2*%
X119085000Y-73220000D03*
%TD*%
D10*
%TO.C,R22*%
X159625000Y-100380000D03*
X157975000Y-100380000D03*
%TD*%
D20*
%TO.C,C13*%
X142570000Y-128355000D03*
X142570000Y-126805000D03*
%TD*%
D23*
%TO.C,R8*%
X151752500Y-93355000D03*
X151752500Y-95005000D03*
%TD*%
D11*
%TO.C,C17*%
X142675000Y-100410000D03*
X141125000Y-100410000D03*
%TD*%
D31*
%TO.C,F1*%
X163945000Y-73687500D03*
X163945000Y-72112500D03*
%TD*%
D11*
%TO.C,C21*%
X145715000Y-125280000D03*
X144165000Y-125280000D03*
%TD*%
%TO.C,C22*%
X145715000Y-130580000D03*
X144165000Y-130580000D03*
%TD*%
D27*
%TO.C,R14*%
X137205000Y-84450000D03*
X138855000Y-84450000D03*
%TD*%
D32*
%TO.C,IC3*%
X157170000Y-101920000D03*
X157170000Y-102720000D03*
X157170000Y-103520000D03*
X159670000Y-103520000D03*
X159670000Y-102720000D03*
X159670000Y-101920000D03*
D33*
X158420000Y-102720000D03*
%TD*%
D17*
%TO.C,C4*%
X118535000Y-102045000D03*
X118535000Y-103595000D03*
%TD*%
D34*
%TO.C,J1*%
X167305000Y-78090000D03*
D35*
X169845000Y-78090000D03*
X167305000Y-80630000D03*
X169845000Y-80630000D03*
X167305000Y-83170000D03*
X169845000Y-83170000D03*
X167305000Y-85710000D03*
X169845000Y-85710000D03*
X167305000Y-88250000D03*
X169845000Y-88250000D03*
X167305000Y-90790000D03*
X169845000Y-90790000D03*
X167305000Y-93330000D03*
X169845000Y-93330000D03*
X167305000Y-95870000D03*
X169845000Y-95870000D03*
X167305000Y-98410000D03*
X169845000Y-98410000D03*
X167305000Y-100950000D03*
X169845000Y-100950000D03*
X167305000Y-103490000D03*
X169845000Y-103490000D03*
X167305000Y-106030000D03*
X169845000Y-106030000D03*
X167305000Y-108570000D03*
X169845000Y-108570000D03*
X167305000Y-111110000D03*
X169845000Y-111110000D03*
X167305000Y-113650000D03*
X169845000Y-113650000D03*
X167305000Y-116190000D03*
X169845000Y-116190000D03*
X167305000Y-118730000D03*
X169845000Y-118730000D03*
X167305000Y-121270000D03*
X169845000Y-121270000D03*
X167305000Y-123810000D03*
X169845000Y-123810000D03*
X167305000Y-126350000D03*
X169845000Y-126350000D03*
%TD*%
D30*
%TO.C,H3*%
X119085000Y-131220000D03*
%TD*%
D19*
%TO.C,C10*%
X157265000Y-105070000D03*
X158815000Y-105070000D03*
%TD*%
D30*
%TO.C,H1*%
X168585000Y-73230000D03*
%TD*%
D10*
%TO.C,R18*%
X142175000Y-123650000D03*
X140525000Y-123650000D03*
%TD*%
D12*
%TO.C,R9*%
X126645000Y-73215000D03*
X126645000Y-71565000D03*
%TD*%
D17*
%TO.C,C15*%
X155770000Y-101945000D03*
X155770000Y-103495000D03*
%TD*%
D30*
%TO.C,H4*%
X168595000Y-131220000D03*
%TD*%
D32*
%TO.C,IC2*%
X119930000Y-102020000D03*
X119930000Y-102820000D03*
X119930000Y-103620000D03*
X122430000Y-103620000D03*
X122430000Y-102820000D03*
X122430000Y-102020000D03*
D33*
X121180000Y-102820000D03*
%TD*%
D29*
%TO.C,D2*%
X125095000Y-71652500D03*
X125095000Y-73227500D03*
%TD*%
D17*
%TO.C,C7*%
X142515000Y-79455000D03*
X142515000Y-81005000D03*
%TD*%
D11*
%TO.C,C1*%
X162330000Y-71060000D03*
X160780000Y-71060000D03*
%TD*%
D36*
%TO.C,Q1*%
X153565000Y-93230000D03*
X153565000Y-95130000D03*
X155440000Y-94180000D03*
%TD*%
D11*
%TO.C,C16*%
X145605000Y-77990000D03*
X144055000Y-77990000D03*
%TD*%
%TO.C,C6*%
X141825384Y-105990000D03*
X140275384Y-105990000D03*
%TD*%
D23*
%TO.C,R25*%
X147295000Y-126735000D03*
X147295000Y-128385000D03*
%TD*%
D14*
%TO.C,U3*%
X138900000Y-80515000D03*
X138900000Y-81015000D03*
D13*
X139150000Y-81540000D03*
X139650000Y-81540000D03*
X140150000Y-81540000D03*
D14*
X140400000Y-81015000D03*
X140400000Y-80515000D03*
D13*
X140150000Y-79990000D03*
X139650000Y-79990000D03*
X139150000Y-79990000D03*
%TD*%
D20*
%TO.C,C8*%
X136710000Y-81515000D03*
X136710000Y-79965000D03*
%TD*%
M02*
