%TF.GenerationSoftware,KiCad,Pcbnew,8.0.8*%
%TF.CreationDate,2025-09-12T17:13:46+02:00*%
%TF.ProjectId,kiba,6b696261-2e6b-4696-9361-645f70636258,rev?*%
%TF.SameCoordinates,Original*%
%TF.FileFunction,Copper,L2,Bot*%
%TF.FilePolarity,Positive*%
%FSLAX46Y46*%
G04 Gerber Fmt 4.6, Leading zero omitted, Abs format (unit mm)*
G04 Created by KiCad (PCBNEW 8.0.8) date 2025-09-12 17:13:46*
%MOMM*%
%LPD*%
G01*
G04 APERTURE LIST*
G04 Aperture macros list*
%AMFreePoly0*
4,1,19,0.550000,-0.750000,0.000000,-0.750000,0.000000,-0.744911,-0.071157,-0.744911,-0.207708,-0.704816,-0.327430,-0.627875,-0.420627,-0.520320,-0.479746,-0.390866,-0.500000,-0.250000,-0.500000,0.250000,-0.479746,0.390866,-0.420627,0.520320,-0.327430,0.627875,-0.207708,0.704816,-0.071157,0.744911,0.000000,0.744911,0.000000,0.750000,0.550000,0.750000,0.550000,-0.750000,0.550000,-0.750000,
$1*%
%AMFreePoly1*
4,1,19,0.000000,0.744911,0.071157,0.744911,0.207708,0.704816,0.327430,0.627875,0.420627,0.520320,0.479746,0.390866,0.500000,0.250000,0.500000,-0.250000,0.479746,-0.390866,0.420627,-0.520320,0.327430,-0.627875,0.207708,-0.704816,0.071157,-0.744911,0.000000,-0.744911,0.000000,-0.750000,-0.550000,-0.750000,-0.550000,0.750000,0.000000,0.750000,0.000000,0.744911,0.000000,0.744911,
$1*%
G04 Aperture macros list end*
%TA.AperFunction,ComponentPad*%
%ADD10R,2.000000X2.000000*%
%TD*%
%TA.AperFunction,ComponentPad*%
%ADD11C,2.000000*%
%TD*%
%TA.AperFunction,ComponentPad*%
%ADD12R,1.700000X1.700000*%
%TD*%
%TA.AperFunction,ComponentPad*%
%ADD13O,1.700000X1.700000*%
%TD*%
%TA.AperFunction,SMDPad,CuDef*%
%ADD14FreePoly0,270.000000*%
%TD*%
%TA.AperFunction,SMDPad,CuDef*%
%ADD15R,1.500000X1.000000*%
%TD*%
%TA.AperFunction,SMDPad,CuDef*%
%ADD16FreePoly1,270.000000*%
%TD*%
%TA.AperFunction,ViaPad*%
%ADD17C,0.600000*%
%TD*%
%TA.AperFunction,Conductor*%
%ADD18C,0.500000*%
%TD*%
%TA.AperFunction,Conductor*%
%ADD19C,0.200000*%
%TD*%
G04 APERTURE END LIST*
D10*
%TO.P,BZ1,1,-*%
%TO.N,+5V*%
X160905785Y-85980000D03*
D11*
%TO.P,BZ1,2,+*%
%TO.N,Net-(BZ1-+)*%
X155905785Y-85980000D03*
%TD*%
D12*
%TO.P,J1,1,3V3*%
%TO.N,unconnected-(J1-3V3-Pad1)*%
X167305000Y-78090000D03*
D13*
%TO.P,J1,2,5V*%
%TO.N,+5V*%
X169845000Y-78090000D03*
%TO.P,J1,3,SDA/GPIO2*%
%TO.N,/Sensors/SDA*%
X167305000Y-80630000D03*
%TO.P,J1,4,5V*%
%TO.N,+5V*%
X169845000Y-80630000D03*
%TO.P,J1,5,SCL/GPIO3*%
%TO.N,/Sensors/SCK*%
X167305000Y-83170000D03*
%TO.P,J1,6,GND*%
%TO.N,GND*%
X169845000Y-83170000D03*
%TO.P,J1,7,GCLK0/GPIO4*%
%TO.N,unconnected-(J1-GCLK0{slash}GPIO4-Pad7)*%
X167305000Y-85710000D03*
%TO.P,J1,8,GPIO14/TXD*%
%TO.N,unconnected-(J1-GPIO14{slash}TXD-Pad8)*%
X169845000Y-85710000D03*
%TO.P,J1,9,GND*%
%TO.N,GND*%
X167305000Y-88250000D03*
%TO.P,J1,10,GPIO15/RXD*%
%TO.N,unconnected-(J1-GPIO15{slash}RXD-Pad10)*%
X169845000Y-88250000D03*
%TO.P,J1,11,GPIO17*%
%TO.N,unconnected-(J1-GPIO17-Pad11)*%
X167305000Y-90790000D03*
%TO.P,J1,12,GPIO18/PWM0*%
%TO.N,unconnected-(J1-GPIO18{slash}PWM0-Pad12)*%
X169845000Y-90790000D03*
%TO.P,J1,13,GPIO27*%
%TO.N,/BUZZ*%
X167305000Y-93330000D03*
%TO.P,J1,14,GND*%
%TO.N,GND*%
X169845000Y-93330000D03*
%TO.P,J1,15,GPIO22*%
%TO.N,unconnected-(J1-GPIO22-Pad15)*%
X167305000Y-95870000D03*
%TO.P,J1,16,GPIO23*%
%TO.N,unconnected-(J1-GPIO23-Pad16)*%
X169845000Y-95870000D03*
%TO.P,J1,17,3V3*%
%TO.N,unconnected-(J1-3V3-Pad17)*%
X167305000Y-98410000D03*
%TO.P,J1,18,GPIO24*%
%TO.N,unconnected-(J1-GPIO24-Pad18)*%
X169845000Y-98410000D03*
%TO.P,J1,19,MOSI0/GPIO10*%
%TO.N,unconnected-(J1-MOSI0{slash}GPIO10-Pad19)*%
X167305000Y-100950000D03*
%TO.P,J1,20,GND*%
%TO.N,GND*%
X169845000Y-100950000D03*
%TO.P,J1,21,MISO0/GPIO9*%
%TO.N,unconnected-(J1-MISO0{slash}GPIO9-Pad21)*%
X167305000Y-103490000D03*
%TO.P,J1,22,GPIO25*%
%TO.N,unconnected-(J1-GPIO25-Pad22)*%
X169845000Y-103490000D03*
%TO.P,J1,23,SCLK0/GPIO11*%
%TO.N,unconnected-(J1-SCLK0{slash}GPIO11-Pad23)*%
X167305000Y-106030000D03*
%TO.P,J1,24,~{CE0}/GPIO8*%
%TO.N,unconnected-(J1-~{CE0}{slash}GPIO8-Pad24)*%
X169845000Y-106030000D03*
%TO.P,J1,25,GND*%
%TO.N,GND*%
X167305000Y-108570000D03*
%TO.P,J1,26,~{CE1}/GPIO7*%
%TO.N,unconnected-(J1-~{CE1}{slash}GPIO7-Pad26)*%
X169845000Y-108570000D03*
%TO.P,J1,27,ID_SD/GPIO0*%
%TO.N,unconnected-(J1-ID_SD{slash}GPIO0-Pad27)*%
X167305000Y-111110000D03*
%TO.P,J1,28,ID_SC/GPIO1*%
%TO.N,unconnected-(J1-ID_SC{slash}GPIO1-Pad28)*%
X169845000Y-111110000D03*
%TO.P,J1,29,GCLK1/GPIO5*%
%TO.N,unconnected-(J1-GCLK1{slash}GPIO5-Pad29)*%
X167305000Y-113650000D03*
%TO.P,J1,30,GND*%
%TO.N,GND*%
X169845000Y-113650000D03*
%TO.P,J1,31,GCLK2/GPIO6*%
%TO.N,unconnected-(J1-GCLK2{slash}GPIO6-Pad31)*%
X167305000Y-116190000D03*
%TO.P,J1,32,PWM0/GPIO12*%
%TO.N,unconnected-(J1-PWM0{slash}GPIO12-Pad32)*%
X169845000Y-116190000D03*
%TO.P,J1,33,PWM1/GPIO13*%
%TO.N,unconnected-(J1-PWM1{slash}GPIO13-Pad33)*%
X167305000Y-118730000D03*
%TO.P,J1,34,GND*%
%TO.N,GND*%
X169845000Y-118730000D03*
%TO.P,J1,35,GPIO19/MISO1*%
%TO.N,unconnected-(J1-GPIO19{slash}MISO1-Pad35)*%
X167305000Y-121270000D03*
%TO.P,J1,36,GPIO16*%
%TO.N,unconnected-(J1-GPIO16-Pad36)*%
X169845000Y-121270000D03*
%TO.P,J1,37,GPIO26*%
%TO.N,/~{RESET}*%
X167305000Y-123810000D03*
%TO.P,J1,38,GPIO20/MOSI1*%
%TO.N,unconnected-(J1-GPIO20{slash}MOSI1-Pad38)*%
X169845000Y-123810000D03*
%TO.P,J1,39,GND*%
%TO.N,GND*%
X167305000Y-126350000D03*
%TO.P,J1,40,GPIO21/SCLK1*%
%TO.N,unconnected-(J1-GPIO21{slash}SCLK1-Pad40)*%
X169845000Y-126350000D03*
%TD*%
D14*
%TO.P,JP7,1,A*%
%TO.N,+3V3*%
X156485000Y-129820000D03*
D15*
%TO.P,JP7,2,C*%
%TO.N,/Sensors/A2*%
X156485000Y-131120000D03*
D16*
%TO.P,JP7,3,B*%
%TO.N,GND*%
X156485000Y-132420000D03*
%TD*%
D14*
%TO.P,JP6,1,A*%
%TO.N,+3V3*%
X159352500Y-129790000D03*
D15*
%TO.P,JP6,2,C*%
%TO.N,/Sensors/A1*%
X159352500Y-131090000D03*
D16*
%TO.P,JP6,3,B*%
%TO.N,GND*%
X159352500Y-132390000D03*
%TD*%
D14*
%TO.P,JP2,1,A*%
%TO.N,+3V3*%
X162225000Y-129780000D03*
D15*
%TO.P,JP2,2,C*%
%TO.N,/Sensors/A0*%
X162225000Y-131080000D03*
D16*
%TO.P,JP2,3,B*%
%TO.N,GND*%
X162225000Y-132380000D03*
%TD*%
D17*
%TO.N,+5V*%
X163945000Y-74750000D03*
X165795000Y-76750000D03*
X165020000Y-76225000D03*
X164345000Y-75550000D03*
%TO.N,GND*%
X138620000Y-96580000D03*
X158375000Y-133360000D03*
X124170000Y-112910000D03*
X145470000Y-95500000D03*
X128640000Y-110310000D03*
X134720000Y-105590000D03*
X127840000Y-104140000D03*
X138590384Y-106124999D03*
X142300000Y-132230000D03*
X158510000Y-91760000D03*
X148525000Y-130320000D03*
X154790000Y-92010000D03*
X163660000Y-102860000D03*
X128455000Y-102290000D03*
X163590000Y-97600000D03*
X157040000Y-78930000D03*
X153550000Y-96670000D03*
X154240000Y-81510000D03*
X148300000Y-104580000D03*
X151780000Y-96450000D03*
X148330000Y-101980000D03*
X150830000Y-84930000D03*
X135310000Y-123970000D03*
X149700000Y-86140000D03*
X152170000Y-83790000D03*
X132880000Y-83200000D03*
X144250000Y-84120000D03*
X124560000Y-96170000D03*
X141310000Y-119420000D03*
X143020000Y-102360000D03*
X148520000Y-87330000D03*
X145210000Y-104760000D03*
X133560000Y-78850000D03*
X127970000Y-100160000D03*
X162305000Y-133650000D03*
X141580000Y-125570000D03*
X147770000Y-112460000D03*
X137460000Y-119230000D03*
X145490000Y-97190000D03*
X161170000Y-108140000D03*
X154815000Y-131590000D03*
X128410000Y-105370000D03*
X141750000Y-93870000D03*
X123040000Y-104790000D03*
X161320000Y-112320000D03*
X156060000Y-99180000D03*
X152340000Y-105150000D03*
X119870000Y-107620000D03*
X139910000Y-79380000D03*
X136780000Y-130000000D03*
X158760000Y-71040000D03*
X141000000Y-101690000D03*
X147360000Y-88580000D03*
X157950000Y-78010000D03*
X142660000Y-96800000D03*
X135630000Y-83730000D03*
X144620000Y-120550000D03*
X158490000Y-85700000D03*
X141120000Y-87220000D03*
X147820000Y-108750000D03*
X146680000Y-97240000D03*
X137880000Y-101230000D03*
X137070000Y-113210000D03*
X157210000Y-123260000D03*
X142820000Y-110700000D03*
X155150000Y-80740000D03*
X159030000Y-114240000D03*
X118710000Y-110780000D03*
X151395000Y-79960000D03*
X125110000Y-103610000D03*
X140560000Y-113180000D03*
X153240000Y-82680000D03*
X146690000Y-95440000D03*
X156170000Y-79910000D03*
X141480000Y-97840000D03*
X153420000Y-77130000D03*
X151390000Y-127530000D03*
%TO.N,+3V3*%
X127050000Y-100290000D03*
X142220000Y-121800000D03*
X142670000Y-98850000D03*
X158540000Y-128490000D03*
X158805000Y-75460000D03*
X154445000Y-103555000D03*
X137190000Y-86170000D03*
X157295000Y-75460000D03*
X156490000Y-128510000D03*
X141950000Y-86170000D03*
X147290000Y-121800000D03*
X160870000Y-128470000D03*
X155250000Y-111670000D03*
X160045000Y-75460000D03*
X151627500Y-81817500D03*
X127050000Y-105770000D03*
X161130000Y-99510000D03*
X137500000Y-121800000D03*
X141820000Y-105150000D03*
X127050000Y-110390000D03*
%TO.N,/Sensors/SCK_1*%
X122420000Y-107760000D03*
X121630000Y-101320000D03*
%TO.N,/Sensors/SCK_0*%
X139560000Y-81950000D03*
X146700000Y-82560000D03*
%TO.N,/Sensors/SCK_2*%
X161850000Y-101160000D03*
X159850000Y-105040000D03*
%TO.N,/Sensors/SDA_2*%
X158610000Y-108220000D03*
X158250000Y-104340000D03*
%TO.N,/~{RESET}*%
X137300000Y-106820000D03*
%TO.N,/Sensors/SCK_3*%
X139660000Y-128870000D03*
X146600000Y-129430000D03*
%TO.N,/Sensors/A2*%
X140920000Y-109040000D03*
%TO.N,/Sensors/A1*%
X141450000Y-108180000D03*
%TO.N,/Sensors/A0*%
X142050000Y-107410000D03*
%TO.N,Net-(U1-VI)*%
X160105000Y-73130000D03*
X151995000Y-76410000D03*
%TD*%
D18*
%TO.N,+5V*%
X165545000Y-76750000D02*
X165020000Y-76225000D01*
X169845000Y-78090000D02*
X169845000Y-80630000D01*
X165795000Y-76750000D02*
X165545000Y-76750000D01*
X164345000Y-75550000D02*
X163945000Y-75150000D01*
X165020000Y-76225000D02*
X164345000Y-75550000D01*
X169845000Y-78090000D02*
X168505000Y-76750000D01*
X163945000Y-74750000D02*
X163945000Y-74700000D01*
D19*
X160905785Y-81639215D02*
X165795000Y-76750000D01*
D18*
X168505000Y-76750000D02*
X165795000Y-76750000D01*
D19*
X160905785Y-85980000D02*
X160905785Y-81639215D01*
D18*
X163945000Y-75150000D02*
X163945000Y-74750000D01*
%TO.N,+3V3*%
X141950000Y-86170000D02*
X147275000Y-86170000D01*
D19*
X156485000Y-129820000D02*
X156485000Y-128515000D01*
D18*
X141740000Y-98850000D02*
X142670000Y-98850000D01*
X139860000Y-121800000D02*
X142220000Y-121800000D01*
X142220000Y-121800000D02*
X147290000Y-121800000D01*
D19*
X154445000Y-103555000D02*
X154445000Y-103505000D01*
D18*
X141125000Y-121800000D02*
X139860000Y-121800000D01*
X137500000Y-121800000D02*
X135015000Y-121800000D01*
X127050000Y-114435000D02*
X127050000Y-110390000D01*
X127050000Y-94085000D02*
X127050000Y-98840000D01*
X127050000Y-100290000D02*
X127050000Y-98840000D01*
X158805000Y-75460000D02*
X157295000Y-75460000D01*
D19*
X154445000Y-110865000D02*
X155250000Y-111670000D01*
D18*
X139290000Y-98850000D02*
X141740000Y-98850000D01*
X127050000Y-98840000D02*
X139280000Y-98840000D01*
X134965000Y-86170000D02*
X127050000Y-94085000D01*
X151627500Y-81817500D02*
X151225000Y-82220000D01*
X157295000Y-75460000D02*
X157295000Y-76150000D01*
X137500000Y-121800000D02*
X141125000Y-121800000D01*
D19*
X154445000Y-103505000D02*
X158440000Y-99510000D01*
D18*
X139280000Y-98840000D02*
X139290000Y-98850000D01*
D19*
X141820000Y-105150000D02*
X141820000Y-98930000D01*
X156485000Y-128515000D02*
X156490000Y-128510000D01*
X162185000Y-129820000D02*
X162225000Y-129780000D01*
D18*
X137190000Y-86170000D02*
X141950000Y-86170000D01*
D19*
X141820000Y-98930000D02*
X141740000Y-98850000D01*
X158440000Y-99510000D02*
X161130000Y-99510000D01*
D18*
X127050000Y-105770000D02*
X127050000Y-100290000D01*
D19*
X162180000Y-129780000D02*
X160870000Y-128470000D01*
D18*
X137190000Y-86170000D02*
X134965000Y-86170000D01*
X154445000Y-103555000D02*
X149740000Y-98850000D01*
X147275000Y-86170000D02*
X151225000Y-82220000D01*
X127050000Y-105770000D02*
X127050000Y-110390000D01*
X158805000Y-75460000D02*
X160045000Y-75460000D01*
X149740000Y-98850000D02*
X142670000Y-98850000D01*
X135015000Y-121800000D02*
X134415000Y-121800000D01*
X157295000Y-76150000D02*
X151627500Y-81817500D01*
D19*
X154445000Y-103555000D02*
X154445000Y-110865000D01*
D18*
X134415000Y-121800000D02*
X127050000Y-114435000D01*
D19*
X162225000Y-129780000D02*
X162180000Y-129780000D01*
X159352500Y-129790000D02*
X159352500Y-129302500D01*
X159352500Y-129302500D02*
X158540000Y-128490000D01*
X159322500Y-129820000D02*
X159352500Y-129790000D01*
%TO.N,/Sensors/SCK_1*%
X122420000Y-102110000D02*
X121630000Y-101320000D01*
X122420000Y-107760000D02*
X122420000Y-102110000D01*
%TO.N,/Sensors/SCK_0*%
X146090000Y-81950000D02*
X146700000Y-82560000D01*
X139560000Y-81950000D02*
X146090000Y-81950000D01*
%TO.N,/Sensors/SCK_2*%
X159850000Y-105040000D02*
X159850000Y-103160000D01*
X159850000Y-103160000D02*
X161850000Y-101160000D01*
%TO.N,/Sensors/SDA_2*%
X158250000Y-104340000D02*
X158610000Y-104700000D01*
X158610000Y-104700000D02*
X158610000Y-108220000D01*
%TO.N,/~{RESET}*%
X149102919Y-106810000D02*
X166102919Y-123810000D01*
X137310000Y-106810000D02*
X149102919Y-106810000D01*
X166102919Y-123810000D02*
X167305000Y-123810000D01*
X137300000Y-106820000D02*
X137310000Y-106810000D01*
%TO.N,/Sensors/SCK_3*%
X140220000Y-129430000D02*
X146600000Y-129430000D01*
X139660000Y-128870000D02*
X140220000Y-129430000D01*
%TO.N,/Sensors/A2*%
X154040000Y-129106336D02*
X156053664Y-131120000D01*
X140940000Y-111710000D02*
X154040000Y-124810000D01*
X140940000Y-111710000D02*
X140940000Y-109060000D01*
X154040000Y-124810000D02*
X154040000Y-129106336D01*
X156053664Y-131120000D02*
X156485000Y-131120000D01*
X140940000Y-109060000D02*
X140920000Y-109040000D01*
%TO.N,/Sensors/A1*%
X157870000Y-127840000D02*
X157870000Y-130557500D01*
X157870000Y-130557500D02*
X158402500Y-131090000D01*
X141540000Y-111510000D02*
X157870000Y-127840000D01*
X158402500Y-131090000D02*
X159352500Y-131090000D01*
X141540000Y-108270000D02*
X141450000Y-108180000D01*
X141540000Y-111510000D02*
X141540000Y-108270000D01*
%TO.N,/Sensors/A0*%
X160790000Y-130550000D02*
X161320000Y-131080000D01*
X142166377Y-111210000D02*
X160790000Y-129833623D01*
X160790000Y-129833623D02*
X160790000Y-130550000D01*
X142050000Y-111100000D02*
X142160000Y-111210000D01*
X142160000Y-111210000D02*
X142166377Y-111210000D01*
X161320000Y-131080000D02*
X162225000Y-131080000D01*
X142050000Y-107410000D02*
X142050000Y-111100000D01*
%TO.N,Net-(U1-VI)*%
X155495000Y-73130000D02*
X160105000Y-73130000D01*
X151995000Y-76410000D02*
X151995000Y-76160000D01*
X152055000Y-76570000D02*
X155495000Y-73130000D01*
%TD*%
%TA.AperFunction,Conductor*%
%TO.N,GND*%
G36*
X134061922Y-70211280D02*
G01*
X134072040Y-70212419D01*
X134156721Y-70221961D01*
X134183782Y-70228137D01*
X134267217Y-70257333D01*
X134292227Y-70269376D01*
X134367074Y-70316406D01*
X134388783Y-70333719D01*
X134451280Y-70396216D01*
X134468593Y-70417925D01*
X134515621Y-70492769D01*
X134527668Y-70517786D01*
X134556860Y-70601211D01*
X134563039Y-70628282D01*
X134573720Y-70723077D01*
X134574500Y-70736961D01*
X134574500Y-70803562D01*
X134574530Y-70804033D01*
X134575749Y-73688561D01*
X134575749Y-73688726D01*
X134575744Y-73797481D01*
X134575744Y-73797488D01*
X134606689Y-74012768D01*
X134606691Y-74012776D01*
X134667957Y-74221454D01*
X134667958Y-74221457D01*
X134758307Y-74419308D01*
X134758313Y-74419319D01*
X134875896Y-74602285D01*
X134875903Y-74602295D01*
X135018330Y-74766666D01*
X135018333Y-74766669D01*
X135182704Y-74909096D01*
X135182714Y-74909103D01*
X135365680Y-75026686D01*
X135365685Y-75026688D01*
X135365687Y-75026690D01*
X135563537Y-75117039D01*
X135563538Y-75117039D01*
X135563542Y-75117041D01*
X135563545Y-75117042D01*
X135772223Y-75178308D01*
X135772231Y-75178310D01*
X135987514Y-75209255D01*
X135987515Y-75209254D01*
X135987522Y-75209256D01*
X136096269Y-75209251D01*
X136096274Y-75209251D01*
X151063726Y-75209251D01*
X151063730Y-75209251D01*
X151172478Y-75209256D01*
X151172485Y-75209255D01*
X151172488Y-75209255D01*
X151334520Y-75185963D01*
X151387769Y-75178310D01*
X151423373Y-75167857D01*
X151596454Y-75117042D01*
X151596457Y-75117041D01*
X151596458Y-75117040D01*
X151596463Y-75117039D01*
X151794313Y-75026690D01*
X151977289Y-74909101D01*
X151986243Y-74901343D01*
X152012384Y-74878690D01*
X152141668Y-74766668D01*
X152253690Y-74637384D01*
X152284096Y-74602295D01*
X152284096Y-74602293D01*
X152284101Y-74602289D01*
X152401690Y-74419313D01*
X152492039Y-74221463D01*
X152511020Y-74156814D01*
X152553308Y-74012776D01*
X152553310Y-74012768D01*
X152584255Y-73797486D01*
X152584255Y-73797483D01*
X152584256Y-73797478D01*
X152584253Y-73762618D01*
X152584463Y-73759374D01*
X152584355Y-73723381D01*
X152584250Y-73688113D01*
X152584248Y-73622835D01*
X152584248Y-73616667D01*
X152584029Y-73613401D01*
X152575522Y-70747130D01*
X152576301Y-70732882D01*
X152582756Y-70675594D01*
X152586961Y-70638275D01*
X152593137Y-70611219D01*
X152622334Y-70527778D01*
X152634374Y-70502776D01*
X152681410Y-70427919D01*
X152698715Y-70406220D01*
X152761220Y-70343715D01*
X152782919Y-70326410D01*
X152857776Y-70279374D01*
X152882778Y-70267334D01*
X152966219Y-70238137D01*
X152993276Y-70231961D01*
X153082042Y-70221960D01*
X153088078Y-70221280D01*
X153101961Y-70220500D01*
X153160892Y-70220500D01*
X167375563Y-70220500D01*
X167442602Y-70240185D01*
X167488357Y-70292989D01*
X167498301Y-70362147D01*
X167469276Y-70425703D01*
X167429365Y-70456220D01*
X167131316Y-70599752D01*
X166845962Y-70779053D01*
X166582477Y-70989174D01*
X166344174Y-71227477D01*
X166134053Y-71490962D01*
X165954752Y-71776316D01*
X165808532Y-72079945D01*
X165697227Y-72398034D01*
X165697223Y-72398046D01*
X165622233Y-72726602D01*
X165622231Y-72726618D01*
X165584500Y-73061491D01*
X165584500Y-73398508D01*
X165622231Y-73733381D01*
X165622233Y-73733397D01*
X165697223Y-74061953D01*
X165697227Y-74061965D01*
X165808532Y-74380054D01*
X165954752Y-74683683D01*
X165954754Y-74683686D01*
X166134054Y-74969039D01*
X166344175Y-75232523D01*
X166582477Y-75470825D01*
X166845961Y-75680946D01*
X167131314Y-75860246D01*
X167434949Y-76006469D01*
X167496087Y-76027862D01*
X167583527Y-76058459D01*
X167640303Y-76099180D01*
X167666050Y-76164133D01*
X167652594Y-76232695D01*
X167604206Y-76283098D01*
X167542572Y-76299500D01*
X166052727Y-76299500D01*
X166013995Y-76291073D01*
X166013563Y-76292545D01*
X165866963Y-76249500D01*
X165866961Y-76249500D01*
X165732965Y-76249500D01*
X165665926Y-76229815D01*
X165645284Y-76213181D01*
X165513014Y-76080911D01*
X165487901Y-76044741D01*
X165445379Y-75951630D01*
X165445376Y-75951626D01*
X165443578Y-75949551D01*
X165351128Y-75842857D01*
X165297373Y-75808311D01*
X165230052Y-75765046D01*
X165213836Y-75760285D01*
X165161092Y-75728989D01*
X164838014Y-75405911D01*
X164812901Y-75369741D01*
X164770379Y-75276630D01*
X164770376Y-75276626D01*
X164676128Y-75167857D01*
X164597057Y-75117041D01*
X164555052Y-75090046D01*
X164538836Y-75085285D01*
X164486092Y-75053989D01*
X164457934Y-75025831D01*
X164424449Y-74964508D01*
X164428966Y-74901343D01*
X164427667Y-74900962D01*
X164429420Y-74894991D01*
X164429433Y-74894816D01*
X164429566Y-74894494D01*
X164430161Y-74892464D01*
X164430165Y-74892457D01*
X164450647Y-74750000D01*
X164430165Y-74607543D01*
X164370377Y-74476627D01*
X164276128Y-74367857D01*
X164155053Y-74290047D01*
X164155051Y-74290046D01*
X164155049Y-74290045D01*
X164155050Y-74290045D01*
X164016963Y-74249500D01*
X164016961Y-74249500D01*
X163873039Y-74249500D01*
X163873036Y-74249500D01*
X163734949Y-74290045D01*
X163613873Y-74367856D01*
X163613872Y-74367856D01*
X163613872Y-74367857D01*
X163603306Y-74380051D01*
X163519623Y-74476626D01*
X163519622Y-74476628D01*
X163459834Y-74607543D01*
X163439353Y-74750000D01*
X163459834Y-74892453D01*
X163459834Y-74892454D01*
X163459834Y-74892455D01*
X163459835Y-74892457D01*
X163483294Y-74943825D01*
X163494500Y-74995335D01*
X163494500Y-75209309D01*
X163498041Y-75222523D01*
X163512538Y-75276627D01*
X163525201Y-75323888D01*
X163551675Y-75369741D01*
X163584511Y-75426614D01*
X163584513Y-75426616D01*
X163851984Y-75694087D01*
X163877097Y-75730256D01*
X163892986Y-75765047D01*
X163919623Y-75823373D01*
X164013872Y-75932143D01*
X164013874Y-75932144D01*
X164013876Y-75932146D01*
X164134941Y-76009950D01*
X164134944Y-76009952D01*
X164134946Y-76009952D01*
X164134947Y-76009953D01*
X164151158Y-76014712D01*
X164203906Y-76046009D01*
X164526984Y-76369087D01*
X164552097Y-76405256D01*
X164594623Y-76498373D01*
X164688872Y-76607143D01*
X164688874Y-76607144D01*
X164688876Y-76607146D01*
X164809941Y-76684950D01*
X164809944Y-76684952D01*
X164809946Y-76684952D01*
X164809947Y-76684953D01*
X164826158Y-76689712D01*
X164878906Y-76721009D01*
X165051282Y-76893385D01*
X165084767Y-76954708D01*
X165079783Y-77024400D01*
X165051282Y-77068747D01*
X160665326Y-81454702D01*
X160665320Y-81454710D01*
X160625767Y-81523219D01*
X160625764Y-81523224D01*
X160605285Y-81599654D01*
X160605285Y-84655500D01*
X160585600Y-84722539D01*
X160532796Y-84768294D01*
X160481285Y-84779500D01*
X159886032Y-84779500D01*
X159827555Y-84791131D01*
X159827554Y-84791132D01*
X159761232Y-84835447D01*
X159716917Y-84901769D01*
X159716916Y-84901770D01*
X159705285Y-84960247D01*
X159705285Y-86999752D01*
X159716916Y-87058229D01*
X159716917Y-87058230D01*
X159761232Y-87124552D01*
X159827554Y-87168867D01*
X159827555Y-87168868D01*
X159886032Y-87180499D01*
X159886035Y-87180500D01*
X159886037Y-87180500D01*
X161925535Y-87180500D01*
X161925536Y-87180499D01*
X161940353Y-87177552D01*
X161984014Y-87168868D01*
X161984014Y-87168867D01*
X161984016Y-87168867D01*
X162050337Y-87124552D01*
X162094652Y-87058231D01*
X162094652Y-87058229D01*
X162094653Y-87058229D01*
X162106284Y-86999752D01*
X162106285Y-86999750D01*
X162106285Y-85710000D01*
X166249417Y-85710000D01*
X166269699Y-85915932D01*
X166269700Y-85915934D01*
X166329768Y-86113954D01*
X166427315Y-86296450D01*
X166427317Y-86296452D01*
X166558589Y-86456410D01*
X166648852Y-86530486D01*
X166718550Y-86587685D01*
X166901046Y-86685232D01*
X167099066Y-86745300D01*
X167099065Y-86745300D01*
X167117529Y-86747118D01*
X167305000Y-86765583D01*
X167510934Y-86745300D01*
X167708954Y-86685232D01*
X167891450Y-86587685D01*
X168051410Y-86456410D01*
X168182685Y-86296450D01*
X168280232Y-86113954D01*
X168340300Y-85915934D01*
X168360583Y-85710000D01*
X168789417Y-85710000D01*
X168809699Y-85915932D01*
X168809700Y-85915934D01*
X168869768Y-86113954D01*
X168967315Y-86296450D01*
X168967317Y-86296452D01*
X169098589Y-86456410D01*
X169188852Y-86530486D01*
X169258550Y-86587685D01*
X169441046Y-86685232D01*
X169639066Y-86745300D01*
X169639065Y-86745300D01*
X169657529Y-86747118D01*
X169845000Y-86765583D01*
X170050934Y-86745300D01*
X170248954Y-86685232D01*
X170431450Y-86587685D01*
X170591410Y-86456410D01*
X170722685Y-86296450D01*
X170820232Y-86113954D01*
X170880300Y-85915934D01*
X170900583Y-85710000D01*
X170880300Y-85504066D01*
X170820232Y-85306046D01*
X170722685Y-85123550D01*
X170635961Y-85017876D01*
X170591410Y-84963589D01*
X170473677Y-84866969D01*
X170431450Y-84832315D01*
X170248954Y-84734768D01*
X170050934Y-84674700D01*
X170050932Y-84674699D01*
X170050934Y-84674699D01*
X169845000Y-84654417D01*
X169639067Y-84674699D01*
X169441043Y-84734769D01*
X169357359Y-84779500D01*
X169258550Y-84832315D01*
X169258548Y-84832316D01*
X169258547Y-84832317D01*
X169098589Y-84963589D01*
X168967317Y-85123547D01*
X168869769Y-85306043D01*
X168809699Y-85504067D01*
X168789417Y-85710000D01*
X168360583Y-85710000D01*
X168340300Y-85504066D01*
X168280232Y-85306046D01*
X168182685Y-85123550D01*
X168095961Y-85017876D01*
X168051410Y-84963589D01*
X167933677Y-84866969D01*
X167891450Y-84832315D01*
X167708954Y-84734768D01*
X167510934Y-84674700D01*
X167510932Y-84674699D01*
X167510934Y-84674699D01*
X167305000Y-84654417D01*
X167099067Y-84674699D01*
X166901043Y-84734769D01*
X166817359Y-84779500D01*
X166718550Y-84832315D01*
X166718548Y-84832316D01*
X166718547Y-84832317D01*
X166558589Y-84963589D01*
X166427317Y-85123547D01*
X166329769Y-85306043D01*
X166269699Y-85504067D01*
X166249417Y-85710000D01*
X162106285Y-85710000D01*
X162106285Y-84960249D01*
X162106284Y-84960247D01*
X162094653Y-84901770D01*
X162094652Y-84901769D01*
X162050337Y-84835447D01*
X161984015Y-84791132D01*
X161984014Y-84791131D01*
X161925537Y-84779500D01*
X161925533Y-84779500D01*
X161330285Y-84779500D01*
X161263246Y-84759815D01*
X161217491Y-84707011D01*
X161206285Y-84655500D01*
X161206285Y-83170000D01*
X166249417Y-83170000D01*
X166269699Y-83375932D01*
X166269700Y-83375934D01*
X166329768Y-83573954D01*
X166427315Y-83756450D01*
X166427317Y-83756452D01*
X166558589Y-83916410D01*
X166655209Y-83995702D01*
X166718550Y-84047685D01*
X166901046Y-84145232D01*
X167099066Y-84205300D01*
X167099065Y-84205300D01*
X167117529Y-84207118D01*
X167305000Y-84225583D01*
X167510934Y-84205300D01*
X167708954Y-84145232D01*
X167891450Y-84047685D01*
X168051410Y-83916410D01*
X168182685Y-83756450D01*
X168280232Y-83573954D01*
X168340300Y-83375934D01*
X168360583Y-83170000D01*
X168340300Y-82964066D01*
X168280232Y-82766046D01*
X168182685Y-82583550D01*
X168111339Y-82496614D01*
X168051410Y-82423589D01*
X167917275Y-82313509D01*
X167891450Y-82292315D01*
X167708954Y-82194768D01*
X167510934Y-82134700D01*
X167510932Y-82134699D01*
X167510934Y-82134699D01*
X167305000Y-82114417D01*
X167099067Y-82134699D01*
X166901043Y-82194769D01*
X166847530Y-82223373D01*
X166718550Y-82292315D01*
X166718548Y-82292316D01*
X166718547Y-82292317D01*
X166558589Y-82423589D01*
X166427317Y-82583547D01*
X166329769Y-82766043D01*
X166269699Y-82964067D01*
X166249417Y-83170000D01*
X161206285Y-83170000D01*
X161206285Y-81815047D01*
X161225970Y-81748008D01*
X161242599Y-81727371D01*
X162339970Y-80630000D01*
X166249417Y-80630000D01*
X166269699Y-80835932D01*
X166269700Y-80835934D01*
X166329768Y-81033954D01*
X166427315Y-81216450D01*
X166427317Y-81216452D01*
X166558589Y-81376410D01*
X166647651Y-81449500D01*
X166718550Y-81507685D01*
X166901046Y-81605232D01*
X167099066Y-81665300D01*
X167099065Y-81665300D01*
X167117529Y-81667118D01*
X167305000Y-81685583D01*
X167510934Y-81665300D01*
X167708954Y-81605232D01*
X167891450Y-81507685D01*
X168051410Y-81376410D01*
X168182685Y-81216450D01*
X168280232Y-81033954D01*
X168340300Y-80835934D01*
X168360583Y-80630000D01*
X168340300Y-80424066D01*
X168280232Y-80226046D01*
X168182685Y-80043550D01*
X168130702Y-79980209D01*
X168051410Y-79883589D01*
X167891452Y-79752317D01*
X167891453Y-79752317D01*
X167891450Y-79752315D01*
X167708954Y-79654768D01*
X167510934Y-79594700D01*
X167510932Y-79594699D01*
X167510934Y-79594699D01*
X167305000Y-79574417D01*
X167099067Y-79594699D01*
X166901043Y-79654769D01*
X166790898Y-79713643D01*
X166718550Y-79752315D01*
X166718548Y-79752316D01*
X166718547Y-79752317D01*
X166558589Y-79883589D01*
X166427317Y-80043547D01*
X166329769Y-80226043D01*
X166269699Y-80424067D01*
X166249417Y-80630000D01*
X162339970Y-80630000D01*
X165683151Y-77286818D01*
X165744474Y-77253334D01*
X165770832Y-77250500D01*
X165866962Y-77250500D01*
X165866962Y-77250499D01*
X165919797Y-77234985D01*
X166013563Y-77207455D01*
X166013995Y-77208926D01*
X166052727Y-77200500D01*
X166130500Y-77200500D01*
X166197539Y-77220185D01*
X166243294Y-77272989D01*
X166254500Y-77324500D01*
X166254500Y-78959752D01*
X166266131Y-79018229D01*
X166266132Y-79018230D01*
X166310447Y-79084552D01*
X166376769Y-79128867D01*
X166376770Y-79128868D01*
X166435247Y-79140499D01*
X166435250Y-79140500D01*
X166435252Y-79140500D01*
X168174750Y-79140500D01*
X168174751Y-79140499D01*
X168189568Y-79137552D01*
X168233229Y-79128868D01*
X168233229Y-79128867D01*
X168233231Y-79128867D01*
X168299552Y-79084552D01*
X168343867Y-79018231D01*
X168343867Y-79018229D01*
X168343868Y-79018229D01*
X168355499Y-78959752D01*
X168355500Y-78959750D01*
X168355500Y-77536965D01*
X168375185Y-77469926D01*
X168427989Y-77424171D01*
X168497147Y-77414227D01*
X168560703Y-77443252D01*
X168567181Y-77449284D01*
X168801893Y-77683996D01*
X168835378Y-77745319D01*
X168832873Y-77807670D01*
X168809700Y-77884064D01*
X168809699Y-77884066D01*
X168789417Y-78090000D01*
X168809699Y-78295932D01*
X168809700Y-78295934D01*
X168869768Y-78493954D01*
X168967315Y-78676450D01*
X168967317Y-78676452D01*
X169098589Y-78836410D01*
X169258549Y-78967684D01*
X169258551Y-78967686D01*
X169285242Y-78981952D01*
X169328953Y-79005316D01*
X169378797Y-79054277D01*
X169394500Y-79114674D01*
X169394500Y-79605324D01*
X169374815Y-79672363D01*
X169328955Y-79714681D01*
X169258549Y-79752315D01*
X169098589Y-79883589D01*
X168967317Y-80043547D01*
X168869769Y-80226043D01*
X168809699Y-80424067D01*
X168789417Y-80630000D01*
X168809699Y-80835932D01*
X168809700Y-80835934D01*
X168869768Y-81033954D01*
X168967315Y-81216450D01*
X168967317Y-81216452D01*
X169098589Y-81376410D01*
X169187651Y-81449500D01*
X169258550Y-81507685D01*
X169441046Y-81605232D01*
X169639066Y-81665300D01*
X169639065Y-81665300D01*
X169657529Y-81667118D01*
X169845000Y-81685583D01*
X170050934Y-81665300D01*
X170248954Y-81605232D01*
X170431450Y-81507685D01*
X170591410Y-81376410D01*
X170722685Y-81216450D01*
X170820232Y-81033954D01*
X170880300Y-80835934D01*
X170900583Y-80630000D01*
X170880300Y-80424066D01*
X170820232Y-80226046D01*
X170722685Y-80043550D01*
X170670702Y-79980209D01*
X170591410Y-79883589D01*
X170431450Y-79752315D01*
X170361045Y-79714681D01*
X170311201Y-79665718D01*
X170295500Y-79605324D01*
X170295500Y-79114674D01*
X170315185Y-79047635D01*
X170361046Y-79005316D01*
X170431450Y-78967685D01*
X170591410Y-78836410D01*
X170722685Y-78676450D01*
X170820232Y-78493954D01*
X170880300Y-78295934D01*
X170900583Y-78090000D01*
X170880300Y-77884066D01*
X170820232Y-77686046D01*
X170722685Y-77503550D01*
X170649380Y-77414227D01*
X170591410Y-77343589D01*
X170441121Y-77220252D01*
X170431450Y-77212315D01*
X170248954Y-77114768D01*
X170050934Y-77054700D01*
X170050932Y-77054699D01*
X170050934Y-77054699D01*
X169845000Y-77034417D01*
X169639066Y-77054699D01*
X169639064Y-77054700D01*
X169562670Y-77077873D01*
X169492804Y-77078496D01*
X169438996Y-77046893D01*
X168817930Y-76425827D01*
X168784445Y-76364504D01*
X168789429Y-76294812D01*
X168831301Y-76238879D01*
X168891728Y-76214926D01*
X169088379Y-76192769D01*
X169088384Y-76192768D01*
X169088394Y-76192767D01*
X169416954Y-76117776D01*
X169735051Y-76006469D01*
X170038686Y-75860246D01*
X170324039Y-75680946D01*
X170587523Y-75470825D01*
X170825825Y-75232523D01*
X171035946Y-74969039D01*
X171215246Y-74683686D01*
X171338914Y-74426886D01*
X171385735Y-74375028D01*
X171453162Y-74356715D01*
X171519786Y-74377763D01*
X171564454Y-74431489D01*
X171574633Y-74480679D01*
X171578902Y-129957400D01*
X171559223Y-130024441D01*
X171506422Y-130070200D01*
X171437264Y-130080149D01*
X171373706Y-130051129D01*
X171343182Y-130011211D01*
X171342869Y-130010562D01*
X171284788Y-129889954D01*
X171225249Y-129766319D01*
X171213807Y-129748109D01*
X171045946Y-129480961D01*
X170835825Y-129217477D01*
X170597523Y-128979175D01*
X170586074Y-128970045D01*
X170481644Y-128886765D01*
X170334039Y-128769054D01*
X170136953Y-128645216D01*
X170048683Y-128589752D01*
X169745054Y-128443532D01*
X169426965Y-128332227D01*
X169426953Y-128332223D01*
X169098397Y-128257233D01*
X169098381Y-128257231D01*
X168763508Y-128219500D01*
X168763504Y-128219500D01*
X168426496Y-128219500D01*
X168426491Y-128219500D01*
X168091618Y-128257231D01*
X168091602Y-128257233D01*
X167763046Y-128332223D01*
X167763034Y-128332227D01*
X167444945Y-128443532D01*
X167141316Y-128589752D01*
X166855962Y-128769053D01*
X166592477Y-128979174D01*
X166354174Y-129217477D01*
X166144053Y-129480962D01*
X165964752Y-129766316D01*
X165818532Y-130069945D01*
X165707227Y-130388034D01*
X165707223Y-130388046D01*
X165632233Y-130716602D01*
X165632231Y-130716618D01*
X165594500Y-131051491D01*
X165594500Y-131388508D01*
X165632231Y-131723381D01*
X165632233Y-131723397D01*
X165707223Y-132051953D01*
X165707227Y-132051965D01*
X165818532Y-132370054D01*
X165964752Y-132673683D01*
X165964754Y-132673686D01*
X166144054Y-132959039D01*
X166354175Y-133222523D01*
X166592477Y-133460825D01*
X166855961Y-133670946D01*
X167141314Y-133850246D01*
X167141319Y-133850249D01*
X167427707Y-133988166D01*
X167479567Y-134034988D01*
X167497880Y-134102415D01*
X167476832Y-134169039D01*
X167423106Y-134213708D01*
X167373895Y-134223886D01*
X120314872Y-134219653D01*
X120247834Y-134199962D01*
X120202084Y-134147154D01*
X120192147Y-134077995D01*
X120221177Y-134014442D01*
X120261082Y-133983933D01*
X120538680Y-133850249D01*
X120538680Y-133850248D01*
X120538686Y-133850246D01*
X120824039Y-133670946D01*
X121087523Y-133460825D01*
X121325825Y-133222523D01*
X121535946Y-132959039D01*
X121715246Y-132673686D01*
X121861469Y-132370051D01*
X121972776Y-132051954D01*
X122047767Y-131723394D01*
X122085500Y-131388504D01*
X122085500Y-131051496D01*
X122047767Y-130716606D01*
X121972776Y-130388046D01*
X121966461Y-130370000D01*
X121884069Y-130134536D01*
X121861469Y-130069949D01*
X121715246Y-129766314D01*
X121535946Y-129480961D01*
X121325825Y-129217477D01*
X121087523Y-128979175D01*
X121076074Y-128970045D01*
X120971644Y-128886765D01*
X120950621Y-128870000D01*
X139154353Y-128870000D01*
X139174834Y-129012456D01*
X139229389Y-129131912D01*
X139234623Y-129143373D01*
X139328872Y-129252143D01*
X139449947Y-129329953D01*
X139449950Y-129329954D01*
X139449949Y-129329954D01*
X139511754Y-129348101D01*
X139585280Y-129369690D01*
X139588036Y-129370499D01*
X139588038Y-129370500D01*
X139684167Y-129370500D01*
X139751206Y-129390185D01*
X139771848Y-129406819D01*
X140035489Y-129670460D01*
X140069718Y-129690222D01*
X140100698Y-129708109D01*
X140104012Y-129710022D01*
X140180438Y-129730500D01*
X140259562Y-129730500D01*
X146141499Y-129730500D01*
X146208538Y-129750185D01*
X146235211Y-129773296D01*
X146268872Y-129812143D01*
X146389947Y-129889953D01*
X146389950Y-129889954D01*
X146389949Y-129889954D01*
X146528036Y-129930499D01*
X146528038Y-129930500D01*
X146528039Y-129930500D01*
X146671962Y-129930500D01*
X146671962Y-129930499D01*
X146810053Y-129889953D01*
X146931128Y-129812143D01*
X147025377Y-129703373D01*
X147085165Y-129572457D01*
X147105647Y-129430000D01*
X147085165Y-129287543D01*
X147025377Y-129156627D01*
X146931128Y-129047857D01*
X146810053Y-128970047D01*
X146810051Y-128970046D01*
X146810049Y-128970045D01*
X146810050Y-128970045D01*
X146671963Y-128929500D01*
X146671961Y-128929500D01*
X146528039Y-128929500D01*
X146528036Y-128929500D01*
X146389949Y-128970045D01*
X146268873Y-129047856D01*
X146268872Y-129047856D01*
X146268872Y-129047857D01*
X146243056Y-129077651D01*
X146235212Y-129086703D01*
X146176433Y-129124477D01*
X146141499Y-129129500D01*
X140395833Y-129129500D01*
X140328794Y-129109815D01*
X140308152Y-129093181D01*
X140199395Y-128984424D01*
X140165910Y-128923101D01*
X140164339Y-128879094D01*
X140165647Y-128870000D01*
X140145165Y-128727543D01*
X140085377Y-128596627D01*
X139991128Y-128487857D01*
X139870053Y-128410047D01*
X139870051Y-128410046D01*
X139870049Y-128410045D01*
X139870050Y-128410045D01*
X139731963Y-128369500D01*
X139731961Y-128369500D01*
X139588039Y-128369500D01*
X139588036Y-128369500D01*
X139449949Y-128410045D01*
X139328873Y-128487856D01*
X139234623Y-128596626D01*
X139234622Y-128596628D01*
X139174834Y-128727543D01*
X139154353Y-128870000D01*
X120950621Y-128870000D01*
X120824039Y-128769054D01*
X120626953Y-128645216D01*
X120538683Y-128589752D01*
X120235054Y-128443532D01*
X119916965Y-128332227D01*
X119916953Y-128332223D01*
X119588397Y-128257233D01*
X119588381Y-128257231D01*
X119253508Y-128219500D01*
X119253504Y-128219500D01*
X118916496Y-128219500D01*
X118916491Y-128219500D01*
X118581618Y-128257231D01*
X118581602Y-128257233D01*
X118253046Y-128332223D01*
X118253034Y-128332227D01*
X117934945Y-128443532D01*
X117631316Y-128589752D01*
X117345962Y-128769053D01*
X117082477Y-128979174D01*
X116844174Y-129217477D01*
X116634053Y-129480962D01*
X116454752Y-129766316D01*
X116311220Y-130064364D01*
X116264398Y-130116223D01*
X116196970Y-130134536D01*
X116130346Y-130113488D01*
X116085678Y-130059762D01*
X116075500Y-130010562D01*
X116075500Y-101320000D01*
X121124353Y-101320000D01*
X121144834Y-101462456D01*
X121181227Y-101542143D01*
X121204623Y-101593373D01*
X121298872Y-101702143D01*
X121419947Y-101779953D01*
X121419950Y-101779954D01*
X121419949Y-101779954D01*
X121527107Y-101811417D01*
X121555280Y-101819690D01*
X121558036Y-101820499D01*
X121558038Y-101820500D01*
X121654167Y-101820500D01*
X121721206Y-101840185D01*
X121741848Y-101856819D01*
X122083181Y-102198152D01*
X122116666Y-102259475D01*
X122119500Y-102285833D01*
X122119500Y-107296260D01*
X122099815Y-107363299D01*
X122089213Y-107377462D01*
X121994625Y-107486622D01*
X121994622Y-107486628D01*
X121934834Y-107617543D01*
X121914353Y-107760000D01*
X121934834Y-107902456D01*
X121955007Y-107946627D01*
X121994623Y-108033373D01*
X122088872Y-108142143D01*
X122209947Y-108219953D01*
X122209950Y-108219954D01*
X122209949Y-108219954D01*
X122348036Y-108260499D01*
X122348038Y-108260500D01*
X122348039Y-108260500D01*
X122491962Y-108260500D01*
X122491962Y-108260499D01*
X122630053Y-108219953D01*
X122751128Y-108142143D01*
X122845377Y-108033373D01*
X122905165Y-107902457D01*
X122925647Y-107760000D01*
X122905165Y-107617543D01*
X122845377Y-107486627D01*
X122845375Y-107486625D01*
X122845374Y-107486622D01*
X122750787Y-107377462D01*
X122721762Y-107313906D01*
X122720500Y-107296260D01*
X122720500Y-102070440D01*
X122720500Y-102070438D01*
X122703122Y-102005583D01*
X122700022Y-101994012D01*
X122660460Y-101925489D01*
X122169395Y-101434424D01*
X122135910Y-101373101D01*
X122134339Y-101329094D01*
X122135647Y-101320000D01*
X122115165Y-101177543D01*
X122055377Y-101046627D01*
X121961128Y-100937857D01*
X121840053Y-100860047D01*
X121840051Y-100860046D01*
X121840049Y-100860045D01*
X121840050Y-100860045D01*
X121701963Y-100819500D01*
X121701961Y-100819500D01*
X121558039Y-100819500D01*
X121558036Y-100819500D01*
X121419949Y-100860045D01*
X121298873Y-100937856D01*
X121204623Y-101046626D01*
X121204622Y-101046628D01*
X121144834Y-101177543D01*
X121124353Y-101320000D01*
X116075500Y-101320000D01*
X116075500Y-100290000D01*
X126544353Y-100290000D01*
X126564834Y-100432453D01*
X126564834Y-100432454D01*
X126564834Y-100432455D01*
X126564835Y-100432457D01*
X126588294Y-100483825D01*
X126599500Y-100535335D01*
X126599500Y-105524663D01*
X126588294Y-105576174D01*
X126564835Y-105627541D01*
X126564834Y-105627542D01*
X126544353Y-105770000D01*
X126564834Y-105912453D01*
X126564834Y-105912454D01*
X126564834Y-105912455D01*
X126564835Y-105912457D01*
X126588294Y-105963825D01*
X126599500Y-106015335D01*
X126599500Y-110144663D01*
X126588294Y-110196174D01*
X126564835Y-110247541D01*
X126564834Y-110247542D01*
X126544353Y-110390000D01*
X126564834Y-110532453D01*
X126564834Y-110532454D01*
X126564834Y-110532455D01*
X126564835Y-110532457D01*
X126588294Y-110583825D01*
X126599500Y-110635335D01*
X126599500Y-114494308D01*
X126623712Y-114584672D01*
X126630200Y-114608885D01*
X126630200Y-114608886D01*
X126639638Y-114625232D01*
X126689511Y-114711614D01*
X134138386Y-122160489D01*
X134241113Y-122219799D01*
X134265321Y-122226284D01*
X134265324Y-122226286D01*
X134265325Y-122226286D01*
X134295447Y-122234357D01*
X134355691Y-122250500D01*
X134955691Y-122250500D01*
X137242273Y-122250500D01*
X137281004Y-122258926D01*
X137281437Y-122257455D01*
X137428036Y-122300499D01*
X137428038Y-122300500D01*
X137428039Y-122300500D01*
X137571962Y-122300500D01*
X137571962Y-122300499D01*
X137624797Y-122284985D01*
X137718563Y-122257455D01*
X137718995Y-122258926D01*
X137757727Y-122250500D01*
X139800691Y-122250500D01*
X141184309Y-122250500D01*
X141962273Y-122250500D01*
X142001004Y-122258926D01*
X142001437Y-122257455D01*
X142148036Y-122300499D01*
X142148038Y-122300500D01*
X142148039Y-122300500D01*
X142291962Y-122300500D01*
X142291962Y-122300499D01*
X142344797Y-122284985D01*
X142438563Y-122257455D01*
X142438995Y-122258926D01*
X142477727Y-122250500D01*
X147032273Y-122250500D01*
X147071004Y-122258926D01*
X147071437Y-122257455D01*
X147218036Y-122300499D01*
X147218038Y-122300500D01*
X147218039Y-122300500D01*
X147361962Y-122300500D01*
X147361962Y-122300499D01*
X147500053Y-122259953D01*
X147621128Y-122182143D01*
X147715377Y-122073373D01*
X147775165Y-121942457D01*
X147795647Y-121800000D01*
X147775165Y-121657543D01*
X147715377Y-121526627D01*
X147621128Y-121417857D01*
X147500053Y-121340047D01*
X147500051Y-121340046D01*
X147500049Y-121340045D01*
X147500050Y-121340045D01*
X147361963Y-121299500D01*
X147361961Y-121299500D01*
X147218039Y-121299500D01*
X147218036Y-121299500D01*
X147071437Y-121342545D01*
X147071004Y-121341073D01*
X147032273Y-121349500D01*
X142477727Y-121349500D01*
X142438995Y-121341073D01*
X142438563Y-121342545D01*
X142291963Y-121299500D01*
X142291961Y-121299500D01*
X142148039Y-121299500D01*
X142148036Y-121299500D01*
X142001437Y-121342545D01*
X142001004Y-121341073D01*
X141962273Y-121349500D01*
X137757727Y-121349500D01*
X137718995Y-121341073D01*
X137718563Y-121342545D01*
X137571963Y-121299500D01*
X137571961Y-121299500D01*
X137428039Y-121299500D01*
X137428036Y-121299500D01*
X137281437Y-121342545D01*
X137281004Y-121341073D01*
X137242273Y-121349500D01*
X134652965Y-121349500D01*
X134585926Y-121329815D01*
X134565284Y-121313181D01*
X127536819Y-114284716D01*
X127503334Y-114223393D01*
X127500500Y-114197035D01*
X127500500Y-110635335D01*
X127511705Y-110583825D01*
X127535165Y-110532457D01*
X127555647Y-110390000D01*
X127535165Y-110247543D01*
X127532484Y-110241673D01*
X127511706Y-110196174D01*
X127500500Y-110144663D01*
X127500500Y-106015335D01*
X127511705Y-105963825D01*
X127535165Y-105912457D01*
X127555647Y-105770000D01*
X127535165Y-105627543D01*
X127527132Y-105609953D01*
X127511706Y-105576174D01*
X127500500Y-105524663D01*
X127500500Y-100535335D01*
X127511705Y-100483825D01*
X127535165Y-100432457D01*
X127555647Y-100290000D01*
X127535165Y-100147543D01*
X127532484Y-100141673D01*
X127511706Y-100096174D01*
X127500500Y-100044663D01*
X127500500Y-99414500D01*
X127520185Y-99347461D01*
X127572989Y-99301706D01*
X127624500Y-99290500D01*
X139177046Y-99290500D01*
X139209138Y-99294724D01*
X139230691Y-99300500D01*
X141395500Y-99300500D01*
X141462539Y-99320185D01*
X141508294Y-99372989D01*
X141519500Y-99424500D01*
X141519500Y-104686260D01*
X141499815Y-104753299D01*
X141489213Y-104767462D01*
X141394625Y-104876622D01*
X141394622Y-104876628D01*
X141334834Y-105007543D01*
X141314353Y-105150000D01*
X141334834Y-105292456D01*
X141344386Y-105313371D01*
X141394623Y-105423373D01*
X141488872Y-105532143D01*
X141609947Y-105609953D01*
X141609950Y-105609954D01*
X141609949Y-105609954D01*
X141748036Y-105650499D01*
X141748038Y-105650500D01*
X141748039Y-105650500D01*
X141891962Y-105650500D01*
X141891962Y-105650499D01*
X142030053Y-105609953D01*
X142151128Y-105532143D01*
X142245377Y-105423373D01*
X142305165Y-105292457D01*
X142325647Y-105150000D01*
X142305165Y-105007543D01*
X142245377Y-104876627D01*
X142245375Y-104876625D01*
X142245374Y-104876622D01*
X142150787Y-104767462D01*
X142121762Y-104703906D01*
X142120500Y-104686260D01*
X142120500Y-99424500D01*
X142140185Y-99357461D01*
X142192989Y-99311706D01*
X142244500Y-99300500D01*
X142412273Y-99300500D01*
X142451004Y-99308926D01*
X142451437Y-99307455D01*
X142598036Y-99350499D01*
X142598038Y-99350500D01*
X142598039Y-99350500D01*
X142741962Y-99350500D01*
X142741962Y-99350499D01*
X142794797Y-99334985D01*
X142888563Y-99307455D01*
X142888995Y-99308926D01*
X142927727Y-99300500D01*
X149502035Y-99300500D01*
X149569074Y-99320185D01*
X149589716Y-99336819D01*
X153951985Y-103699089D01*
X153977098Y-103735258D01*
X154019623Y-103828373D01*
X154113872Y-103937143D01*
X154113875Y-103937144D01*
X154114213Y-103937535D01*
X154143238Y-104001091D01*
X154144500Y-104018738D01*
X154144500Y-110904562D01*
X154148045Y-110917790D01*
X154164979Y-110980990D01*
X154164980Y-110980991D01*
X154190671Y-111025489D01*
X154190672Y-111025490D01*
X154204539Y-111049510D01*
X154710604Y-111555575D01*
X154744089Y-111616898D01*
X154745661Y-111660902D01*
X154744353Y-111669999D01*
X154751190Y-111717553D01*
X154741246Y-111786712D01*
X154695491Y-111839516D01*
X154628452Y-111859200D01*
X154561412Y-111839515D01*
X154540771Y-111822881D01*
X149287431Y-106569541D01*
X149287426Y-106569537D01*
X149247742Y-106546626D01*
X149247742Y-106546625D01*
X149247740Y-106546625D01*
X149237679Y-106540816D01*
X149218909Y-106529979D01*
X149218910Y-106529979D01*
X149180694Y-106519739D01*
X149142481Y-106509500D01*
X149142479Y-106509500D01*
X137749836Y-106509500D01*
X137682797Y-106489815D01*
X137656124Y-106466703D01*
X137631130Y-106437859D01*
X137631129Y-106437858D01*
X137631128Y-106437857D01*
X137510053Y-106360047D01*
X137510051Y-106360046D01*
X137510049Y-106360045D01*
X137510050Y-106360045D01*
X137371963Y-106319500D01*
X137371961Y-106319500D01*
X137228039Y-106319500D01*
X137228036Y-106319500D01*
X137089949Y-106360045D01*
X136968873Y-106437856D01*
X136874623Y-106546626D01*
X136874622Y-106546628D01*
X136814834Y-106677543D01*
X136794353Y-106820000D01*
X136814834Y-106962456D01*
X136834369Y-107005230D01*
X136874623Y-107093373D01*
X136968872Y-107202143D01*
X137089947Y-107279953D01*
X137089950Y-107279954D01*
X137089949Y-107279954D01*
X137228036Y-107320499D01*
X137228038Y-107320500D01*
X137228039Y-107320500D01*
X137371962Y-107320500D01*
X137371962Y-107320499D01*
X137510053Y-107279953D01*
X137631128Y-107202143D01*
X137631130Y-107202141D01*
X137673453Y-107153298D01*
X137732230Y-107115523D01*
X137767166Y-107110500D01*
X141445302Y-107110500D01*
X141512341Y-107130185D01*
X141558096Y-107182989D01*
X141568040Y-107252147D01*
X141565116Y-107265587D01*
X141544353Y-107410000D01*
X141562735Y-107537853D01*
X141552791Y-107607012D01*
X141507036Y-107659816D01*
X141439997Y-107679500D01*
X141378036Y-107679500D01*
X141239949Y-107720045D01*
X141118873Y-107797856D01*
X141024623Y-107906626D01*
X141024622Y-107906628D01*
X140964834Y-108037543D01*
X140944353Y-108180000D01*
X140964834Y-108322456D01*
X140983802Y-108363988D01*
X140993746Y-108433146D01*
X140964721Y-108496702D01*
X140905944Y-108534477D01*
X140871008Y-108539500D01*
X140848036Y-108539500D01*
X140709949Y-108580045D01*
X140588873Y-108657856D01*
X140494623Y-108766626D01*
X140494622Y-108766628D01*
X140434834Y-108897543D01*
X140414353Y-109040000D01*
X140434834Y-109182456D01*
X140494622Y-109313371D01*
X140494623Y-109313373D01*
X140588872Y-109422143D01*
X140588874Y-109422144D01*
X140595577Y-109427953D01*
X140593331Y-109430543D01*
X140628265Y-109470811D01*
X140639500Y-109522388D01*
X140639500Y-111749562D01*
X140649455Y-111786712D01*
X140659979Y-111825990D01*
X140667788Y-111839515D01*
X140679153Y-111859200D01*
X140679902Y-111860496D01*
X140679903Y-111860499D01*
X140699537Y-111894507D01*
X140699541Y-111894512D01*
X153703181Y-124898152D01*
X153736666Y-124959475D01*
X153739500Y-124985833D01*
X153739500Y-129145898D01*
X153745455Y-129168121D01*
X153759979Y-129222326D01*
X153779215Y-129255642D01*
X153779216Y-129255646D01*
X153799535Y-129290840D01*
X153799541Y-129290848D01*
X155498181Y-130989488D01*
X155531666Y-131050811D01*
X155534500Y-131077169D01*
X155534500Y-131639752D01*
X155546131Y-131698229D01*
X155546132Y-131698230D01*
X155590447Y-131764552D01*
X155656769Y-131808867D01*
X155656770Y-131808868D01*
X155715247Y-131820499D01*
X155715250Y-131820500D01*
X155715252Y-131820500D01*
X157254750Y-131820500D01*
X157254751Y-131820499D01*
X157269568Y-131817552D01*
X157313229Y-131808868D01*
X157313229Y-131808867D01*
X157313231Y-131808867D01*
X157379552Y-131764552D01*
X157423867Y-131698231D01*
X157423867Y-131698229D01*
X157423868Y-131698229D01*
X157435499Y-131639752D01*
X157435500Y-131639750D01*
X157435500Y-130847333D01*
X157455185Y-130780294D01*
X157507989Y-130734539D01*
X157577147Y-130724595D01*
X157640703Y-130753620D01*
X157647181Y-130759652D01*
X158217989Y-131330460D01*
X158286512Y-131370022D01*
X158310094Y-131376340D01*
X158369754Y-131412705D01*
X158400283Y-131475551D01*
X158402000Y-131496115D01*
X158402000Y-131609752D01*
X158413631Y-131668229D01*
X158413632Y-131668230D01*
X158457947Y-131734552D01*
X158524269Y-131778867D01*
X158524270Y-131778868D01*
X158582747Y-131790499D01*
X158582750Y-131790500D01*
X158582752Y-131790500D01*
X160122250Y-131790500D01*
X160122251Y-131790499D01*
X160137068Y-131787552D01*
X160180729Y-131778868D01*
X160180729Y-131778867D01*
X160180731Y-131778867D01*
X160247052Y-131734552D01*
X160291367Y-131668231D01*
X160291367Y-131668229D01*
X160291368Y-131668229D01*
X160302999Y-131609752D01*
X160303000Y-131609750D01*
X160303000Y-130770264D01*
X160322685Y-130703225D01*
X160375489Y-130657470D01*
X160444647Y-130647526D01*
X160508203Y-130676551D01*
X160534385Y-130708261D01*
X160539203Y-130716606D01*
X160549540Y-130734511D01*
X160549542Y-130734514D01*
X160549543Y-130734515D01*
X160840836Y-131025807D01*
X161079540Y-131264511D01*
X161135489Y-131320460D01*
X161135491Y-131320461D01*
X161135495Y-131320464D01*
X161211049Y-131364085D01*
X161209477Y-131366807D01*
X161252331Y-131401315D01*
X161274419Y-131467602D01*
X161274500Y-131472072D01*
X161274500Y-131599752D01*
X161286131Y-131658229D01*
X161286132Y-131658230D01*
X161330447Y-131724552D01*
X161396769Y-131768867D01*
X161396770Y-131768868D01*
X161455247Y-131780499D01*
X161455250Y-131780500D01*
X161455252Y-131780500D01*
X162994750Y-131780500D01*
X162994751Y-131780499D01*
X163009568Y-131777552D01*
X163053229Y-131768868D01*
X163053229Y-131768867D01*
X163053231Y-131768867D01*
X163119552Y-131724552D01*
X163163867Y-131658231D01*
X163163867Y-131658229D01*
X163163868Y-131658229D01*
X163175499Y-131599752D01*
X163175500Y-131599750D01*
X163175500Y-130560249D01*
X163175499Y-130560247D01*
X163161485Y-130489790D01*
X163162971Y-130489494D01*
X163156968Y-130433685D01*
X163158108Y-130428101D01*
X163160147Y-130419164D01*
X163160149Y-130419163D01*
X163180500Y-130330000D01*
X163180500Y-129708111D01*
X163172176Y-129650215D01*
X163131669Y-129512260D01*
X163107371Y-129459055D01*
X163107368Y-129459051D01*
X163107368Y-129459049D01*
X163029639Y-129338101D01*
X163029638Y-129338100D01*
X163025992Y-129333892D01*
X162991334Y-129293895D01*
X162943149Y-129252143D01*
X162882684Y-129199749D01*
X162882675Y-129199743D01*
X162882673Y-129199741D01*
X162854464Y-129181612D01*
X162833472Y-129168121D01*
X162833456Y-129168112D01*
X162702689Y-129108393D01*
X162702684Y-129108391D01*
X162702683Y-129108391D01*
X162646561Y-129091912D01*
X162646556Y-129091910D01*
X162516682Y-129073238D01*
X162504246Y-129071450D01*
X162445755Y-129071450D01*
X162445753Y-129071450D01*
X162433319Y-129073238D01*
X162415673Y-129074500D01*
X162034327Y-129074500D01*
X162016681Y-129073238D01*
X162004246Y-129071450D01*
X162004245Y-129071450D01*
X161947783Y-129071450D01*
X161880744Y-129051765D01*
X161860102Y-129035131D01*
X161409395Y-128584424D01*
X161375910Y-128523101D01*
X161374339Y-128479094D01*
X161375647Y-128470000D01*
X161355165Y-128327543D01*
X161295377Y-128196627D01*
X161201128Y-128087857D01*
X161080053Y-128010047D01*
X161080051Y-128010046D01*
X161080049Y-128010045D01*
X161080050Y-128010045D01*
X160941963Y-127969500D01*
X160941961Y-127969500D01*
X160798039Y-127969500D01*
X160798036Y-127969500D01*
X160659949Y-128010045D01*
X160538873Y-128087856D01*
X160444623Y-128196626D01*
X160444622Y-128196628D01*
X160384834Y-128327543D01*
X160364353Y-128470000D01*
X160384834Y-128612456D01*
X160428008Y-128706992D01*
X160437952Y-128776151D01*
X160408927Y-128839707D01*
X160350149Y-128877481D01*
X160280279Y-128877481D01*
X160227533Y-128846185D01*
X157731348Y-126350000D01*
X168789417Y-126350000D01*
X168809699Y-126555932D01*
X168809700Y-126555934D01*
X168869768Y-126753954D01*
X168967315Y-126936450D01*
X168967317Y-126936452D01*
X169098589Y-127096410D01*
X169195209Y-127175702D01*
X169258550Y-127227685D01*
X169441046Y-127325232D01*
X169639066Y-127385300D01*
X169639065Y-127385300D01*
X169657529Y-127387118D01*
X169845000Y-127405583D01*
X170050934Y-127385300D01*
X170248954Y-127325232D01*
X170431450Y-127227685D01*
X170591410Y-127096410D01*
X170722685Y-126936450D01*
X170820232Y-126753954D01*
X170880300Y-126555934D01*
X170900583Y-126350000D01*
X170880300Y-126144066D01*
X170820232Y-125946046D01*
X170722685Y-125763550D01*
X170670702Y-125700209D01*
X170591410Y-125603589D01*
X170431452Y-125472317D01*
X170431453Y-125472317D01*
X170431450Y-125472315D01*
X170248954Y-125374768D01*
X170050934Y-125314700D01*
X170050932Y-125314699D01*
X170050934Y-125314699D01*
X169845000Y-125294417D01*
X169639067Y-125314699D01*
X169441043Y-125374769D01*
X169330898Y-125433643D01*
X169258550Y-125472315D01*
X169258548Y-125472316D01*
X169258547Y-125472317D01*
X169098589Y-125603589D01*
X168967317Y-125763547D01*
X168869769Y-125946043D01*
X168809699Y-126144067D01*
X168789417Y-126350000D01*
X157731348Y-126350000D01*
X142386819Y-111005471D01*
X142353334Y-110944148D01*
X142350500Y-110917790D01*
X142350500Y-107873738D01*
X142370185Y-107806699D01*
X142380787Y-107792535D01*
X142381124Y-107792144D01*
X142381128Y-107792143D01*
X142475377Y-107683373D01*
X142535165Y-107552457D01*
X142555647Y-107410000D01*
X142535165Y-107267543D01*
X142533903Y-107258765D01*
X142535720Y-107258503D01*
X142535722Y-107199562D01*
X142573498Y-107140785D01*
X142637055Y-107111762D01*
X142654698Y-107110500D01*
X148927086Y-107110500D01*
X148994125Y-107130185D01*
X149014767Y-107146819D01*
X165918408Y-124050460D01*
X165986931Y-124090022D01*
X166063357Y-124110500D01*
X166206421Y-124110500D01*
X166273460Y-124130185D01*
X166319215Y-124182989D01*
X166325081Y-124198503D01*
X166329768Y-124213954D01*
X166427315Y-124396450D01*
X166427317Y-124396452D01*
X166558589Y-124556410D01*
X166655209Y-124635702D01*
X166718550Y-124687685D01*
X166901046Y-124785232D01*
X167099066Y-124845300D01*
X167099065Y-124845300D01*
X167117529Y-124847118D01*
X167305000Y-124865583D01*
X167510934Y-124845300D01*
X167708954Y-124785232D01*
X167891450Y-124687685D01*
X168051410Y-124556410D01*
X168182685Y-124396450D01*
X168280232Y-124213954D01*
X168340300Y-124015934D01*
X168360583Y-123810000D01*
X168789417Y-123810000D01*
X168809699Y-124015932D01*
X168809700Y-124015934D01*
X168869768Y-124213954D01*
X168967315Y-124396450D01*
X168967317Y-124396452D01*
X169098589Y-124556410D01*
X169195209Y-124635702D01*
X169258550Y-124687685D01*
X169441046Y-124785232D01*
X169639066Y-124845300D01*
X169639065Y-124845300D01*
X169657529Y-124847118D01*
X169845000Y-124865583D01*
X170050934Y-124845300D01*
X170248954Y-124785232D01*
X170431450Y-124687685D01*
X170591410Y-124556410D01*
X170722685Y-124396450D01*
X170820232Y-124213954D01*
X170880300Y-124015934D01*
X170900583Y-123810000D01*
X170880300Y-123604066D01*
X170820232Y-123406046D01*
X170722685Y-123223550D01*
X170670702Y-123160209D01*
X170591410Y-123063589D01*
X170431452Y-122932317D01*
X170431453Y-122932317D01*
X170431450Y-122932315D01*
X170248954Y-122834768D01*
X170050934Y-122774700D01*
X170050932Y-122774699D01*
X170050934Y-122774699D01*
X169845000Y-122754417D01*
X169639067Y-122774699D01*
X169441043Y-122834769D01*
X169330898Y-122893643D01*
X169258550Y-122932315D01*
X169258548Y-122932316D01*
X169258547Y-122932317D01*
X169098589Y-123063589D01*
X168967317Y-123223547D01*
X168869769Y-123406043D01*
X168809699Y-123604067D01*
X168789417Y-123810000D01*
X168360583Y-123810000D01*
X168340300Y-123604066D01*
X168280232Y-123406046D01*
X168182685Y-123223550D01*
X168130702Y-123160209D01*
X168051410Y-123063589D01*
X167891452Y-122932317D01*
X167891453Y-122932317D01*
X167891450Y-122932315D01*
X167708954Y-122834768D01*
X167510934Y-122774700D01*
X167510932Y-122774699D01*
X167510934Y-122774699D01*
X167305000Y-122754417D01*
X167099067Y-122774699D01*
X166901043Y-122834769D01*
X166790898Y-122893643D01*
X166718550Y-122932315D01*
X166718548Y-122932316D01*
X166718547Y-122932317D01*
X166558589Y-123063589D01*
X166427317Y-123223547D01*
X166336885Y-123392729D01*
X166287922Y-123442573D01*
X166219784Y-123458033D01*
X166154104Y-123434201D01*
X166139846Y-123421956D01*
X163987890Y-121270000D01*
X166249417Y-121270000D01*
X166269699Y-121475932D01*
X166299734Y-121574944D01*
X166329768Y-121673954D01*
X166427315Y-121856450D01*
X166427317Y-121856452D01*
X166558589Y-122016410D01*
X166628000Y-122073373D01*
X166718550Y-122147685D01*
X166901046Y-122245232D01*
X167099066Y-122305300D01*
X167099065Y-122305300D01*
X167117529Y-122307118D01*
X167305000Y-122325583D01*
X167510934Y-122305300D01*
X167708954Y-122245232D01*
X167891450Y-122147685D01*
X168051410Y-122016410D01*
X168182685Y-121856450D01*
X168280232Y-121673954D01*
X168340300Y-121475934D01*
X168360583Y-121270000D01*
X168789417Y-121270000D01*
X168809699Y-121475932D01*
X168839734Y-121574944D01*
X168869768Y-121673954D01*
X168967315Y-121856450D01*
X168967317Y-121856452D01*
X169098589Y-122016410D01*
X169168000Y-122073373D01*
X169258550Y-122147685D01*
X169441046Y-122245232D01*
X169639066Y-122305300D01*
X169639065Y-122305300D01*
X169657529Y-122307118D01*
X169845000Y-122325583D01*
X170050934Y-122305300D01*
X170248954Y-122245232D01*
X170431450Y-122147685D01*
X170591410Y-122016410D01*
X170722685Y-121856450D01*
X170820232Y-121673954D01*
X170880300Y-121475934D01*
X170900583Y-121270000D01*
X170880300Y-121064066D01*
X170820232Y-120866046D01*
X170722685Y-120683550D01*
X170670702Y-120620209D01*
X170591410Y-120523589D01*
X170431452Y-120392317D01*
X170431453Y-120392317D01*
X170431450Y-120392315D01*
X170248954Y-120294768D01*
X170050934Y-120234700D01*
X170050932Y-120234699D01*
X170050934Y-120234699D01*
X169845000Y-120214417D01*
X169639067Y-120234699D01*
X169441043Y-120294769D01*
X169330898Y-120353643D01*
X169258550Y-120392315D01*
X169258548Y-120392316D01*
X169258547Y-120392317D01*
X169098589Y-120523589D01*
X168967317Y-120683547D01*
X168869769Y-120866043D01*
X168809699Y-121064067D01*
X168789417Y-121270000D01*
X168360583Y-121270000D01*
X168340300Y-121064066D01*
X168280232Y-120866046D01*
X168182685Y-120683550D01*
X168130702Y-120620209D01*
X168051410Y-120523589D01*
X167891452Y-120392317D01*
X167891453Y-120392317D01*
X167891450Y-120392315D01*
X167708954Y-120294768D01*
X167510934Y-120234700D01*
X167510932Y-120234699D01*
X167510934Y-120234699D01*
X167305000Y-120214417D01*
X167099067Y-120234699D01*
X166901043Y-120294769D01*
X166790898Y-120353643D01*
X166718550Y-120392315D01*
X166718548Y-120392316D01*
X166718547Y-120392317D01*
X166558589Y-120523589D01*
X166427317Y-120683547D01*
X166329769Y-120866043D01*
X166269699Y-121064067D01*
X166249417Y-121270000D01*
X163987890Y-121270000D01*
X161447890Y-118730000D01*
X166249417Y-118730000D01*
X166269699Y-118935932D01*
X166269700Y-118935934D01*
X166329768Y-119133954D01*
X166427315Y-119316450D01*
X166427317Y-119316452D01*
X166558589Y-119476410D01*
X166655209Y-119555702D01*
X166718550Y-119607685D01*
X166901046Y-119705232D01*
X167099066Y-119765300D01*
X167099065Y-119765300D01*
X167117529Y-119767118D01*
X167305000Y-119785583D01*
X167510934Y-119765300D01*
X167708954Y-119705232D01*
X167891450Y-119607685D01*
X168051410Y-119476410D01*
X168182685Y-119316450D01*
X168280232Y-119133954D01*
X168340300Y-118935934D01*
X168360583Y-118730000D01*
X168340300Y-118524066D01*
X168280232Y-118326046D01*
X168182685Y-118143550D01*
X168130702Y-118080209D01*
X168051410Y-117983589D01*
X167891452Y-117852317D01*
X167891453Y-117852317D01*
X167891450Y-117852315D01*
X167708954Y-117754768D01*
X167510934Y-117694700D01*
X167510932Y-117694699D01*
X167510934Y-117694699D01*
X167305000Y-117674417D01*
X167099067Y-117694699D01*
X166901043Y-117754769D01*
X166790898Y-117813643D01*
X166718550Y-117852315D01*
X166718548Y-117852316D01*
X166718547Y-117852317D01*
X166558589Y-117983589D01*
X166427317Y-118143547D01*
X166329769Y-118326043D01*
X166269699Y-118524067D01*
X166249417Y-118730000D01*
X161447890Y-118730000D01*
X158907890Y-116190000D01*
X166249417Y-116190000D01*
X166269699Y-116395932D01*
X166269700Y-116395934D01*
X166329768Y-116593954D01*
X166427315Y-116776450D01*
X166427317Y-116776452D01*
X166558589Y-116936410D01*
X166655209Y-117015702D01*
X166718550Y-117067685D01*
X166901046Y-117165232D01*
X167099066Y-117225300D01*
X167099065Y-117225300D01*
X167117529Y-117227118D01*
X167305000Y-117245583D01*
X167510934Y-117225300D01*
X167708954Y-117165232D01*
X167891450Y-117067685D01*
X168051410Y-116936410D01*
X168182685Y-116776450D01*
X168280232Y-116593954D01*
X168340300Y-116395934D01*
X168360583Y-116190000D01*
X168789417Y-116190000D01*
X168809699Y-116395932D01*
X168809700Y-116395934D01*
X168869768Y-116593954D01*
X168967315Y-116776450D01*
X168967317Y-116776452D01*
X169098589Y-116936410D01*
X169195209Y-117015702D01*
X169258550Y-117067685D01*
X169441046Y-117165232D01*
X169639066Y-117225300D01*
X169639065Y-117225300D01*
X169657529Y-117227118D01*
X169845000Y-117245583D01*
X170050934Y-117225300D01*
X170248954Y-117165232D01*
X170431450Y-117067685D01*
X170591410Y-116936410D01*
X170722685Y-116776450D01*
X170820232Y-116593954D01*
X170880300Y-116395934D01*
X170900583Y-116190000D01*
X170880300Y-115984066D01*
X170820232Y-115786046D01*
X170722685Y-115603550D01*
X170670702Y-115540209D01*
X170591410Y-115443589D01*
X170431452Y-115312317D01*
X170431453Y-115312317D01*
X170431450Y-115312315D01*
X170248954Y-115214768D01*
X170050934Y-115154700D01*
X170050932Y-115154699D01*
X170050934Y-115154699D01*
X169845000Y-115134417D01*
X169639067Y-115154699D01*
X169441043Y-115214769D01*
X169330898Y-115273643D01*
X169258550Y-115312315D01*
X169258548Y-115312316D01*
X169258547Y-115312317D01*
X169098589Y-115443589D01*
X168967317Y-115603547D01*
X168869769Y-115786043D01*
X168809699Y-115984067D01*
X168789417Y-116190000D01*
X168360583Y-116190000D01*
X168340300Y-115984066D01*
X168280232Y-115786046D01*
X168182685Y-115603550D01*
X168130702Y-115540209D01*
X168051410Y-115443589D01*
X167891452Y-115312317D01*
X167891453Y-115312317D01*
X167891450Y-115312315D01*
X167708954Y-115214768D01*
X167510934Y-115154700D01*
X167510932Y-115154699D01*
X167510934Y-115154699D01*
X167305000Y-115134417D01*
X167099067Y-115154699D01*
X166901043Y-115214769D01*
X166790898Y-115273643D01*
X166718550Y-115312315D01*
X166718548Y-115312316D01*
X166718547Y-115312317D01*
X166558589Y-115443589D01*
X166427317Y-115603547D01*
X166329769Y-115786043D01*
X166269699Y-115984067D01*
X166249417Y-116190000D01*
X158907890Y-116190000D01*
X156367890Y-113650000D01*
X166249417Y-113650000D01*
X166269699Y-113855932D01*
X166269700Y-113855934D01*
X166329768Y-114053954D01*
X166427315Y-114236450D01*
X166427317Y-114236452D01*
X166558589Y-114396410D01*
X166655209Y-114475702D01*
X166718550Y-114527685D01*
X166901046Y-114625232D01*
X167099066Y-114685300D01*
X167099065Y-114685300D01*
X167117529Y-114687118D01*
X167305000Y-114705583D01*
X167510934Y-114685300D01*
X167708954Y-114625232D01*
X167891450Y-114527685D01*
X168051410Y-114396410D01*
X168182685Y-114236450D01*
X168280232Y-114053954D01*
X168340300Y-113855934D01*
X168360583Y-113650000D01*
X168340300Y-113444066D01*
X168280232Y-113246046D01*
X168182685Y-113063550D01*
X168130702Y-113000209D01*
X168051410Y-112903589D01*
X167891452Y-112772317D01*
X167891453Y-112772317D01*
X167891450Y-112772315D01*
X167708954Y-112674768D01*
X167510934Y-112614700D01*
X167510932Y-112614699D01*
X167510934Y-112614699D01*
X167305000Y-112594417D01*
X167099067Y-112614699D01*
X166901043Y-112674769D01*
X166790898Y-112733643D01*
X166718550Y-112772315D01*
X166718548Y-112772316D01*
X166718547Y-112772317D01*
X166558589Y-112903589D01*
X166427317Y-113063547D01*
X166329769Y-113246043D01*
X166269699Y-113444067D01*
X166249417Y-113650000D01*
X156367890Y-113650000D01*
X155100071Y-112382181D01*
X155066586Y-112320858D01*
X155071570Y-112251166D01*
X155113442Y-112195233D01*
X155178906Y-112170816D01*
X155187752Y-112170500D01*
X155321962Y-112170500D01*
X155321962Y-112170499D01*
X155460053Y-112129953D01*
X155581128Y-112052143D01*
X155675377Y-111943373D01*
X155735165Y-111812457D01*
X155755647Y-111670000D01*
X155735165Y-111527543D01*
X155675377Y-111396627D01*
X155581128Y-111287857D01*
X155460053Y-111210047D01*
X155460051Y-111210046D01*
X155460049Y-111210045D01*
X155460050Y-111210045D01*
X155321963Y-111169500D01*
X155321961Y-111169500D01*
X155225833Y-111169500D01*
X155158794Y-111149815D01*
X155138152Y-111133181D01*
X155114971Y-111110000D01*
X166249417Y-111110000D01*
X166269699Y-111315932D01*
X166269700Y-111315934D01*
X166329768Y-111513954D01*
X166427315Y-111696450D01*
X166427317Y-111696452D01*
X166558589Y-111856410D01*
X166655209Y-111935702D01*
X166718550Y-111987685D01*
X166901046Y-112085232D01*
X167099066Y-112145300D01*
X167099065Y-112145300D01*
X167117529Y-112147118D01*
X167305000Y-112165583D01*
X167510934Y-112145300D01*
X167708954Y-112085232D01*
X167891450Y-111987685D01*
X168051410Y-111856410D01*
X168182685Y-111696450D01*
X168280232Y-111513954D01*
X168340300Y-111315934D01*
X168360583Y-111110000D01*
X168789417Y-111110000D01*
X168809699Y-111315932D01*
X168809700Y-111315934D01*
X168869768Y-111513954D01*
X168967315Y-111696450D01*
X168967317Y-111696452D01*
X169098589Y-111856410D01*
X169195209Y-111935702D01*
X169258550Y-111987685D01*
X169441046Y-112085232D01*
X169639066Y-112145300D01*
X169639065Y-112145300D01*
X169657529Y-112147118D01*
X169845000Y-112165583D01*
X170050934Y-112145300D01*
X170248954Y-112085232D01*
X170431450Y-111987685D01*
X170591410Y-111856410D01*
X170722685Y-111696450D01*
X170820232Y-111513954D01*
X170880300Y-111315934D01*
X170900583Y-111110000D01*
X170880300Y-110904066D01*
X170820232Y-110706046D01*
X170722685Y-110523550D01*
X170670702Y-110460209D01*
X170591410Y-110363589D01*
X170431452Y-110232317D01*
X170431453Y-110232317D01*
X170431450Y-110232315D01*
X170248954Y-110134768D01*
X170050934Y-110074700D01*
X170050932Y-110074699D01*
X170050934Y-110074699D01*
X169845000Y-110054417D01*
X169639067Y-110074699D01*
X169441043Y-110134769D01*
X169330898Y-110193643D01*
X169258550Y-110232315D01*
X169258548Y-110232316D01*
X169258547Y-110232317D01*
X169098589Y-110363589D01*
X168967317Y-110523547D01*
X168967315Y-110523550D01*
X168962556Y-110532454D01*
X168869769Y-110706043D01*
X168809699Y-110904067D01*
X168789417Y-111110000D01*
X168360583Y-111110000D01*
X168340300Y-110904066D01*
X168280232Y-110706046D01*
X168182685Y-110523550D01*
X168130702Y-110460209D01*
X168051410Y-110363589D01*
X167891452Y-110232317D01*
X167891453Y-110232317D01*
X167891450Y-110232315D01*
X167708954Y-110134768D01*
X167510934Y-110074700D01*
X167510932Y-110074699D01*
X167510934Y-110074699D01*
X167305000Y-110054417D01*
X167099067Y-110074699D01*
X166901043Y-110134769D01*
X166790898Y-110193643D01*
X166718550Y-110232315D01*
X166718548Y-110232316D01*
X166718547Y-110232317D01*
X166558589Y-110363589D01*
X166427317Y-110523547D01*
X166427315Y-110523550D01*
X166422556Y-110532454D01*
X166329769Y-110706043D01*
X166269699Y-110904067D01*
X166249417Y-111110000D01*
X155114971Y-111110000D01*
X154781819Y-110776848D01*
X154748334Y-110715525D01*
X154745500Y-110689167D01*
X154745500Y-104340000D01*
X157744353Y-104340000D01*
X157764834Y-104482456D01*
X157824622Y-104613371D01*
X157824623Y-104613373D01*
X157918872Y-104722143D01*
X158039947Y-104799953D01*
X158039950Y-104799954D01*
X158039949Y-104799954D01*
X158178036Y-104840499D01*
X158178038Y-104840500D01*
X158178039Y-104840500D01*
X158185500Y-104840500D01*
X158252539Y-104860185D01*
X158298294Y-104912989D01*
X158309500Y-104964500D01*
X158309500Y-107756260D01*
X158289815Y-107823299D01*
X158279213Y-107837462D01*
X158184625Y-107946622D01*
X158184622Y-107946628D01*
X158124834Y-108077543D01*
X158104353Y-108220000D01*
X158124834Y-108362456D01*
X158125570Y-108364067D01*
X158184623Y-108493373D01*
X158278872Y-108602143D01*
X158399947Y-108679953D01*
X158399950Y-108679954D01*
X158399949Y-108679954D01*
X158538036Y-108720499D01*
X158538038Y-108720500D01*
X158538039Y-108720500D01*
X158681962Y-108720500D01*
X158681962Y-108720499D01*
X158820053Y-108679953D01*
X158941128Y-108602143D01*
X158968980Y-108570000D01*
X168789417Y-108570000D01*
X168809699Y-108775932D01*
X168809700Y-108775934D01*
X168869768Y-108973954D01*
X168967315Y-109156450D01*
X168988658Y-109182457D01*
X169098589Y-109316410D01*
X169195209Y-109395702D01*
X169258550Y-109447685D01*
X169441046Y-109545232D01*
X169639066Y-109605300D01*
X169639065Y-109605300D01*
X169657529Y-109607118D01*
X169845000Y-109625583D01*
X170050934Y-109605300D01*
X170248954Y-109545232D01*
X170431450Y-109447685D01*
X170591410Y-109316410D01*
X170722685Y-109156450D01*
X170820232Y-108973954D01*
X170880300Y-108775934D01*
X170900583Y-108570000D01*
X170880300Y-108364066D01*
X170820232Y-108166046D01*
X170722685Y-107983550D01*
X170659556Y-107906627D01*
X170591410Y-107823589D01*
X170431452Y-107692317D01*
X170431453Y-107692317D01*
X170431450Y-107692315D01*
X170248954Y-107594768D01*
X170050934Y-107534700D01*
X170050932Y-107534699D01*
X170050934Y-107534699D01*
X169845000Y-107514417D01*
X169639067Y-107534699D01*
X169441043Y-107594769D01*
X169398437Y-107617543D01*
X169258550Y-107692315D01*
X169258548Y-107692316D01*
X169258547Y-107692317D01*
X169098589Y-107823589D01*
X168967317Y-107983547D01*
X168869769Y-108166043D01*
X168809699Y-108364067D01*
X168789417Y-108570000D01*
X158968980Y-108570000D01*
X159035377Y-108493373D01*
X159095165Y-108362457D01*
X159115647Y-108220000D01*
X159095165Y-108077543D01*
X159035377Y-107946627D01*
X159035375Y-107946625D01*
X159035374Y-107946622D01*
X158940787Y-107837462D01*
X158911762Y-107773906D01*
X158910500Y-107756260D01*
X158910500Y-106030000D01*
X166249417Y-106030000D01*
X166269699Y-106235932D01*
X166269700Y-106235934D01*
X166329768Y-106433954D01*
X166427315Y-106616450D01*
X166427317Y-106616452D01*
X166558589Y-106776410D01*
X166655209Y-106855702D01*
X166718550Y-106907685D01*
X166901046Y-107005232D01*
X167099066Y-107065300D01*
X167099065Y-107065300D01*
X167117529Y-107067118D01*
X167305000Y-107085583D01*
X167510934Y-107065300D01*
X167708954Y-107005232D01*
X167891450Y-106907685D01*
X168051410Y-106776410D01*
X168182685Y-106616450D01*
X168280232Y-106433954D01*
X168340300Y-106235934D01*
X168360583Y-106030000D01*
X168789417Y-106030000D01*
X168809699Y-106235932D01*
X168809700Y-106235934D01*
X168869768Y-106433954D01*
X168967315Y-106616450D01*
X168967317Y-106616452D01*
X169098589Y-106776410D01*
X169195209Y-106855702D01*
X169258550Y-106907685D01*
X169441046Y-107005232D01*
X169639066Y-107065300D01*
X169639065Y-107065300D01*
X169657529Y-107067118D01*
X169845000Y-107085583D01*
X170050934Y-107065300D01*
X170248954Y-107005232D01*
X170431450Y-106907685D01*
X170591410Y-106776410D01*
X170722685Y-106616450D01*
X170820232Y-106433954D01*
X170880300Y-106235934D01*
X170900583Y-106030000D01*
X170880300Y-105824066D01*
X170820232Y-105626046D01*
X170722685Y-105443550D01*
X170670702Y-105380209D01*
X170591410Y-105283589D01*
X170431452Y-105152317D01*
X170431453Y-105152317D01*
X170431450Y-105152315D01*
X170248954Y-105054768D01*
X170050934Y-104994700D01*
X170050932Y-104994699D01*
X170050934Y-104994699D01*
X169845000Y-104974417D01*
X169639067Y-104994699D01*
X169441043Y-105054769D01*
X169330898Y-105113643D01*
X169258550Y-105152315D01*
X169258548Y-105152316D01*
X169258547Y-105152317D01*
X169098589Y-105283589D01*
X168967317Y-105443547D01*
X168869769Y-105626043D01*
X168809699Y-105824067D01*
X168789417Y-106030000D01*
X168360583Y-106030000D01*
X168340300Y-105824066D01*
X168280232Y-105626046D01*
X168182685Y-105443550D01*
X168130702Y-105380209D01*
X168051410Y-105283589D01*
X167891452Y-105152317D01*
X167891453Y-105152317D01*
X167891450Y-105152315D01*
X167708954Y-105054768D01*
X167510934Y-104994700D01*
X167510932Y-104994699D01*
X167510934Y-104994699D01*
X167305000Y-104974417D01*
X167099067Y-104994699D01*
X166901043Y-105054769D01*
X166790898Y-105113643D01*
X166718550Y-105152315D01*
X166718548Y-105152316D01*
X166718547Y-105152317D01*
X166558589Y-105283589D01*
X166427317Y-105443547D01*
X166329769Y-105626043D01*
X166269699Y-105824067D01*
X166249417Y-106030000D01*
X158910500Y-106030000D01*
X158910500Y-105040000D01*
X159344353Y-105040000D01*
X159364834Y-105182456D01*
X159411021Y-105283589D01*
X159424623Y-105313373D01*
X159518872Y-105422143D01*
X159639947Y-105499953D01*
X159639950Y-105499954D01*
X159639949Y-105499954D01*
X159778036Y-105540499D01*
X159778038Y-105540500D01*
X159778039Y-105540500D01*
X159921962Y-105540500D01*
X159921962Y-105540499D01*
X160060053Y-105499953D01*
X160181128Y-105422143D01*
X160275377Y-105313373D01*
X160335165Y-105182457D01*
X160355647Y-105040000D01*
X160335165Y-104897543D01*
X160275377Y-104766627D01*
X160275375Y-104766625D01*
X160275374Y-104766622D01*
X160180787Y-104657462D01*
X160151762Y-104593906D01*
X160150500Y-104576260D01*
X160150500Y-103490000D01*
X166249417Y-103490000D01*
X166269699Y-103695932D01*
X166299734Y-103794944D01*
X166329768Y-103893954D01*
X166427315Y-104076450D01*
X166427317Y-104076452D01*
X166558589Y-104236410D01*
X166655209Y-104315702D01*
X166718550Y-104367685D01*
X166901046Y-104465232D01*
X167099066Y-104525300D01*
X167099065Y-104525300D01*
X167117529Y-104527118D01*
X167305000Y-104545583D01*
X167510934Y-104525300D01*
X167708954Y-104465232D01*
X167891450Y-104367685D01*
X168051410Y-104236410D01*
X168182685Y-104076450D01*
X168280232Y-103893954D01*
X168340300Y-103695934D01*
X168360583Y-103490000D01*
X168789417Y-103490000D01*
X168809699Y-103695932D01*
X168839734Y-103794944D01*
X168869768Y-103893954D01*
X168967315Y-104076450D01*
X168967317Y-104076452D01*
X169098589Y-104236410D01*
X169195209Y-104315702D01*
X169258550Y-104367685D01*
X169441046Y-104465232D01*
X169639066Y-104525300D01*
X169639065Y-104525300D01*
X169657529Y-104527118D01*
X169845000Y-104545583D01*
X170050934Y-104525300D01*
X170248954Y-104465232D01*
X170431450Y-104367685D01*
X170591410Y-104236410D01*
X170722685Y-104076450D01*
X170820232Y-103893954D01*
X170880300Y-103695934D01*
X170900583Y-103490000D01*
X170880300Y-103284066D01*
X170820232Y-103086046D01*
X170722685Y-102903550D01*
X170670702Y-102840209D01*
X170591410Y-102743589D01*
X170431452Y-102612317D01*
X170431453Y-102612317D01*
X170431450Y-102612315D01*
X170248954Y-102514768D01*
X170050934Y-102454700D01*
X170050932Y-102454699D01*
X170050934Y-102454699D01*
X169845000Y-102434417D01*
X169639067Y-102454699D01*
X169441043Y-102514769D01*
X169330898Y-102573643D01*
X169258550Y-102612315D01*
X169258548Y-102612316D01*
X169258547Y-102612317D01*
X169098589Y-102743589D01*
X168967317Y-102903547D01*
X168967315Y-102903550D01*
X168928864Y-102975487D01*
X168869769Y-103086043D01*
X168809699Y-103284067D01*
X168789417Y-103490000D01*
X168360583Y-103490000D01*
X168340300Y-103284066D01*
X168280232Y-103086046D01*
X168182685Y-102903550D01*
X168130702Y-102840209D01*
X168051410Y-102743589D01*
X167891452Y-102612317D01*
X167891453Y-102612317D01*
X167891450Y-102612315D01*
X167708954Y-102514768D01*
X167510934Y-102454700D01*
X167510932Y-102454699D01*
X167510934Y-102454699D01*
X167305000Y-102434417D01*
X167099067Y-102454699D01*
X166901043Y-102514769D01*
X166790898Y-102573643D01*
X166718550Y-102612315D01*
X166718548Y-102612316D01*
X166718547Y-102612317D01*
X166558589Y-102743589D01*
X166427317Y-102903547D01*
X166427315Y-102903550D01*
X166388864Y-102975487D01*
X166329769Y-103086043D01*
X166269699Y-103284067D01*
X166249417Y-103490000D01*
X160150500Y-103490000D01*
X160150500Y-103335832D01*
X160170185Y-103268793D01*
X160186814Y-103248156D01*
X161738151Y-101696818D01*
X161799474Y-101663334D01*
X161825832Y-101660500D01*
X161921962Y-101660500D01*
X161921962Y-101660499D01*
X162060053Y-101619953D01*
X162181128Y-101542143D01*
X162275377Y-101433373D01*
X162335165Y-101302457D01*
X162355647Y-101160000D01*
X162335165Y-101017543D01*
X162304319Y-100950000D01*
X166249417Y-100950000D01*
X166269699Y-101155932D01*
X166276255Y-101177543D01*
X166329768Y-101353954D01*
X166427315Y-101536450D01*
X166427317Y-101536452D01*
X166558589Y-101696410D01*
X166655209Y-101775702D01*
X166718550Y-101827685D01*
X166901046Y-101925232D01*
X167099066Y-101985300D01*
X167099065Y-101985300D01*
X167117529Y-101987118D01*
X167305000Y-102005583D01*
X167510934Y-101985300D01*
X167708954Y-101925232D01*
X167891450Y-101827685D01*
X168051410Y-101696410D01*
X168182685Y-101536450D01*
X168280232Y-101353954D01*
X168340300Y-101155934D01*
X168360583Y-100950000D01*
X168340300Y-100744066D01*
X168280232Y-100546046D01*
X168182685Y-100363550D01*
X168130702Y-100300209D01*
X168051410Y-100203589D01*
X167891452Y-100072317D01*
X167891453Y-100072317D01*
X167891450Y-100072315D01*
X167708954Y-99974768D01*
X167510934Y-99914700D01*
X167510932Y-99914699D01*
X167510934Y-99914699D01*
X167305000Y-99894417D01*
X167099067Y-99914699D01*
X166901043Y-99974769D01*
X166790898Y-100033643D01*
X166718550Y-100072315D01*
X166718548Y-100072316D01*
X166718547Y-100072317D01*
X166558589Y-100203589D01*
X166427317Y-100363547D01*
X166329769Y-100546043D01*
X166269699Y-100744067D01*
X166249417Y-100950000D01*
X162304319Y-100950000D01*
X162275377Y-100886627D01*
X162181128Y-100777857D01*
X162060053Y-100700047D01*
X162060051Y-100700046D01*
X162060049Y-100700045D01*
X162060050Y-100700045D01*
X161921963Y-100659500D01*
X161921961Y-100659500D01*
X161778039Y-100659500D01*
X161778036Y-100659500D01*
X161639949Y-100700045D01*
X161518873Y-100777856D01*
X161424623Y-100886626D01*
X161424622Y-100886628D01*
X161364834Y-101017543D01*
X161344353Y-101160000D01*
X161344353Y-101160001D01*
X161345661Y-101169103D01*
X161335713Y-101238261D01*
X161310603Y-101274424D01*
X159665489Y-102919540D01*
X159609541Y-102975487D01*
X159609535Y-102975495D01*
X159569982Y-103044004D01*
X159569979Y-103044009D01*
X159549500Y-103120439D01*
X159549500Y-104576260D01*
X159529815Y-104643299D01*
X159519213Y-104657462D01*
X159424625Y-104766622D01*
X159424622Y-104766628D01*
X159364834Y-104897543D01*
X159344353Y-105040000D01*
X158910500Y-105040000D01*
X158910500Y-104660439D01*
X158909808Y-104657857D01*
X158890021Y-104584011D01*
X158867834Y-104545582D01*
X158850464Y-104515495D01*
X158850458Y-104515487D01*
X158789395Y-104454424D01*
X158755910Y-104393101D01*
X158754339Y-104349094D01*
X158755647Y-104340000D01*
X158735165Y-104197543D01*
X158675377Y-104066627D01*
X158581128Y-103957857D01*
X158460053Y-103880047D01*
X158460051Y-103880046D01*
X158460049Y-103880045D01*
X158460050Y-103880045D01*
X158321963Y-103839500D01*
X158321961Y-103839500D01*
X158178039Y-103839500D01*
X158178036Y-103839500D01*
X158039949Y-103880045D01*
X157918873Y-103957856D01*
X157824623Y-104066626D01*
X157824622Y-104066628D01*
X157764834Y-104197543D01*
X157744353Y-104340000D01*
X154745500Y-104340000D01*
X154745500Y-104018738D01*
X154765185Y-103951699D01*
X154775787Y-103937535D01*
X154776124Y-103937144D01*
X154776128Y-103937143D01*
X154870377Y-103828373D01*
X154930165Y-103697457D01*
X154950647Y-103555000D01*
X154943053Y-103502185D01*
X154952996Y-103433030D01*
X154978107Y-103396862D01*
X158528152Y-99846819D01*
X158589475Y-99813334D01*
X158615833Y-99810500D01*
X160671499Y-99810500D01*
X160738538Y-99830185D01*
X160765211Y-99853296D01*
X160798872Y-99892143D01*
X160919947Y-99969953D01*
X160919950Y-99969954D01*
X160919949Y-99969954D01*
X161058036Y-100010499D01*
X161058038Y-100010500D01*
X161058039Y-100010500D01*
X161201962Y-100010500D01*
X161201962Y-100010499D01*
X161323651Y-99974769D01*
X161340050Y-99969954D01*
X161340050Y-99969953D01*
X161340053Y-99969953D01*
X161461128Y-99892143D01*
X161555377Y-99783373D01*
X161615165Y-99652457D01*
X161635647Y-99510000D01*
X161615165Y-99367543D01*
X161555377Y-99236627D01*
X161461128Y-99127857D01*
X161340053Y-99050047D01*
X161340051Y-99050046D01*
X161340049Y-99050045D01*
X161340050Y-99050045D01*
X161201963Y-99009500D01*
X161201961Y-99009500D01*
X161058039Y-99009500D01*
X161058036Y-99009500D01*
X160919949Y-99050045D01*
X160798873Y-99127856D01*
X160765212Y-99166703D01*
X160706433Y-99204477D01*
X160671499Y-99209500D01*
X158400438Y-99209500D01*
X158362224Y-99219739D01*
X158324009Y-99229979D01*
X158324008Y-99229980D01*
X158279821Y-99255492D01*
X158272591Y-99259665D01*
X158255489Y-99269539D01*
X154613747Y-102911281D01*
X154552424Y-102944766D01*
X154482732Y-102939782D01*
X154438385Y-102911281D01*
X150016616Y-98489513D01*
X150016614Y-98489511D01*
X149965250Y-98459856D01*
X149913888Y-98430201D01*
X149901780Y-98426957D01*
X149889673Y-98423713D01*
X149889670Y-98423712D01*
X149838495Y-98410000D01*
X166249417Y-98410000D01*
X166269699Y-98615932D01*
X166269700Y-98615934D01*
X166329768Y-98813954D01*
X166427315Y-98996450D01*
X166427317Y-98996452D01*
X166558589Y-99156410D01*
X166648235Y-99229979D01*
X166718550Y-99287685D01*
X166901046Y-99385232D01*
X167099066Y-99445300D01*
X167099065Y-99445300D01*
X167117529Y-99447118D01*
X167305000Y-99465583D01*
X167510934Y-99445300D01*
X167708954Y-99385232D01*
X167891450Y-99287685D01*
X168051410Y-99156410D01*
X168182685Y-98996450D01*
X168280232Y-98813954D01*
X168340300Y-98615934D01*
X168360583Y-98410000D01*
X168789417Y-98410000D01*
X168809699Y-98615932D01*
X168809700Y-98615934D01*
X168869768Y-98813954D01*
X168967315Y-98996450D01*
X168967317Y-98996452D01*
X169098589Y-99156410D01*
X169188235Y-99229979D01*
X169258550Y-99287685D01*
X169441046Y-99385232D01*
X169639066Y-99445300D01*
X169639065Y-99445300D01*
X169657529Y-99447118D01*
X169845000Y-99465583D01*
X170050934Y-99445300D01*
X170248954Y-99385232D01*
X170431450Y-99287685D01*
X170591410Y-99156410D01*
X170722685Y-98996450D01*
X170820232Y-98813954D01*
X170880300Y-98615934D01*
X170900583Y-98410000D01*
X170880300Y-98204066D01*
X170820232Y-98006046D01*
X170722685Y-97823550D01*
X170670702Y-97760209D01*
X170591410Y-97663589D01*
X170431452Y-97532317D01*
X170431453Y-97532317D01*
X170431450Y-97532315D01*
X170248954Y-97434768D01*
X170050934Y-97374700D01*
X170050932Y-97374699D01*
X170050934Y-97374699D01*
X169845000Y-97354417D01*
X169639067Y-97374699D01*
X169441043Y-97434769D01*
X169330898Y-97493643D01*
X169258550Y-97532315D01*
X169258548Y-97532316D01*
X169258547Y-97532317D01*
X169098589Y-97663589D01*
X168967317Y-97823547D01*
X168869769Y-98006043D01*
X168809699Y-98204067D01*
X168789417Y-98410000D01*
X168360583Y-98410000D01*
X168340300Y-98204066D01*
X168280232Y-98006046D01*
X168182685Y-97823550D01*
X168130702Y-97760209D01*
X168051410Y-97663589D01*
X167891452Y-97532317D01*
X167891453Y-97532317D01*
X167891450Y-97532315D01*
X167708954Y-97434768D01*
X167510934Y-97374700D01*
X167510932Y-97374699D01*
X167510934Y-97374699D01*
X167305000Y-97354417D01*
X167099067Y-97374699D01*
X166901043Y-97434769D01*
X166790898Y-97493643D01*
X166718550Y-97532315D01*
X166718548Y-97532316D01*
X166718547Y-97532317D01*
X166558589Y-97663589D01*
X166427317Y-97823547D01*
X166329769Y-98006043D01*
X166269699Y-98204067D01*
X166249417Y-98410000D01*
X149838495Y-98410000D01*
X149799309Y-98399500D01*
X149799308Y-98399500D01*
X142927727Y-98399500D01*
X142888995Y-98391073D01*
X142888563Y-98392545D01*
X142741963Y-98349500D01*
X142741961Y-98349500D01*
X142598039Y-98349500D01*
X142598036Y-98349500D01*
X142451437Y-98392545D01*
X142451004Y-98391073D01*
X142412273Y-98399500D01*
X139392954Y-98399500D01*
X139360861Y-98395275D01*
X139339309Y-98389500D01*
X139339308Y-98389500D01*
X127624500Y-98389500D01*
X127557461Y-98369815D01*
X127511706Y-98317011D01*
X127500500Y-98265500D01*
X127500500Y-95870000D01*
X166249417Y-95870000D01*
X166269699Y-96075932D01*
X166269700Y-96075934D01*
X166329768Y-96273954D01*
X166427315Y-96456450D01*
X166427317Y-96456452D01*
X166558589Y-96616410D01*
X166655209Y-96695702D01*
X166718550Y-96747685D01*
X166901046Y-96845232D01*
X167099066Y-96905300D01*
X167099065Y-96905300D01*
X167117529Y-96907118D01*
X167305000Y-96925583D01*
X167510934Y-96905300D01*
X167708954Y-96845232D01*
X167891450Y-96747685D01*
X168051410Y-96616410D01*
X168182685Y-96456450D01*
X168280232Y-96273954D01*
X168340300Y-96075934D01*
X168360583Y-95870000D01*
X168789417Y-95870000D01*
X168809699Y-96075932D01*
X168809700Y-96075934D01*
X168869768Y-96273954D01*
X168967315Y-96456450D01*
X168967317Y-96456452D01*
X169098589Y-96616410D01*
X169195209Y-96695702D01*
X169258550Y-96747685D01*
X169441046Y-96845232D01*
X169639066Y-96905300D01*
X169639065Y-96905300D01*
X169657529Y-96907118D01*
X169845000Y-96925583D01*
X170050934Y-96905300D01*
X170248954Y-96845232D01*
X170431450Y-96747685D01*
X170591410Y-96616410D01*
X170722685Y-96456450D01*
X170820232Y-96273954D01*
X170880300Y-96075934D01*
X170900583Y-95870000D01*
X170880300Y-95664066D01*
X170820232Y-95466046D01*
X170722685Y-95283550D01*
X170670702Y-95220209D01*
X170591410Y-95123589D01*
X170431452Y-94992317D01*
X170431453Y-94992317D01*
X170431450Y-94992315D01*
X170248954Y-94894768D01*
X170050934Y-94834700D01*
X170050932Y-94834699D01*
X170050934Y-94834699D01*
X169845000Y-94814417D01*
X169639067Y-94834699D01*
X169441043Y-94894769D01*
X169330898Y-94953643D01*
X169258550Y-94992315D01*
X169258548Y-94992316D01*
X169258547Y-94992317D01*
X169098589Y-95123589D01*
X168967317Y-95283547D01*
X168869769Y-95466043D01*
X168809699Y-95664067D01*
X168789417Y-95870000D01*
X168360583Y-95870000D01*
X168340300Y-95664066D01*
X168280232Y-95466046D01*
X168182685Y-95283550D01*
X168130702Y-95220209D01*
X168051410Y-95123589D01*
X167891452Y-94992317D01*
X167891453Y-94992317D01*
X167891450Y-94992315D01*
X167708954Y-94894768D01*
X167510934Y-94834700D01*
X167510932Y-94834699D01*
X167510934Y-94834699D01*
X167305000Y-94814417D01*
X167099067Y-94834699D01*
X166901043Y-94894769D01*
X166790898Y-94953643D01*
X166718550Y-94992315D01*
X166718548Y-94992316D01*
X166718547Y-94992317D01*
X166558589Y-95123589D01*
X166427317Y-95283547D01*
X166329769Y-95466043D01*
X166269699Y-95664067D01*
X166249417Y-95870000D01*
X127500500Y-95870000D01*
X127500500Y-94322965D01*
X127520185Y-94255926D01*
X127536819Y-94235284D01*
X128442103Y-93330000D01*
X166249417Y-93330000D01*
X166269699Y-93535932D01*
X166269700Y-93535934D01*
X166329768Y-93733954D01*
X166427315Y-93916450D01*
X166427317Y-93916452D01*
X166558589Y-94076410D01*
X166655209Y-94155702D01*
X166718550Y-94207685D01*
X166901046Y-94305232D01*
X167099066Y-94365300D01*
X167099065Y-94365300D01*
X167117529Y-94367118D01*
X167305000Y-94385583D01*
X167510934Y-94365300D01*
X167708954Y-94305232D01*
X167891450Y-94207685D01*
X168051410Y-94076410D01*
X168182685Y-93916450D01*
X168280232Y-93733954D01*
X168340300Y-93535934D01*
X168360583Y-93330000D01*
X168340300Y-93124066D01*
X168280232Y-92926046D01*
X168182685Y-92743550D01*
X168130702Y-92680209D01*
X168051410Y-92583589D01*
X167891452Y-92452317D01*
X167891453Y-92452317D01*
X167891450Y-92452315D01*
X167708954Y-92354768D01*
X167510934Y-92294700D01*
X167510932Y-92294699D01*
X167510934Y-92294699D01*
X167305000Y-92274417D01*
X167099067Y-92294699D01*
X166901043Y-92354769D01*
X166790898Y-92413643D01*
X166718550Y-92452315D01*
X166718548Y-92452316D01*
X166718547Y-92452317D01*
X166558589Y-92583589D01*
X166427317Y-92743547D01*
X166329769Y-92926043D01*
X166269699Y-93124067D01*
X166249417Y-93330000D01*
X128442103Y-93330000D01*
X130982103Y-90790000D01*
X166249417Y-90790000D01*
X166269699Y-90995932D01*
X166269700Y-90995934D01*
X166329768Y-91193954D01*
X166427315Y-91376450D01*
X166427317Y-91376452D01*
X166558589Y-91536410D01*
X166655209Y-91615702D01*
X166718550Y-91667685D01*
X166901046Y-91765232D01*
X167099066Y-91825300D01*
X167099065Y-91825300D01*
X167117529Y-91827118D01*
X167305000Y-91845583D01*
X167510934Y-91825300D01*
X167708954Y-91765232D01*
X167891450Y-91667685D01*
X168051410Y-91536410D01*
X168182685Y-91376450D01*
X168280232Y-91193954D01*
X168340300Y-90995934D01*
X168360583Y-90790000D01*
X168789417Y-90790000D01*
X168809699Y-90995932D01*
X168809700Y-90995934D01*
X168869768Y-91193954D01*
X168967315Y-91376450D01*
X168967317Y-91376452D01*
X169098589Y-91536410D01*
X169195209Y-91615702D01*
X169258550Y-91667685D01*
X169441046Y-91765232D01*
X169639066Y-91825300D01*
X169639065Y-91825300D01*
X169657529Y-91827118D01*
X169845000Y-91845583D01*
X170050934Y-91825300D01*
X170248954Y-91765232D01*
X170431450Y-91667685D01*
X170591410Y-91536410D01*
X170722685Y-91376450D01*
X170820232Y-91193954D01*
X170880300Y-90995934D01*
X170900583Y-90790000D01*
X170880300Y-90584066D01*
X170820232Y-90386046D01*
X170722685Y-90203550D01*
X170670702Y-90140209D01*
X170591410Y-90043589D01*
X170431452Y-89912317D01*
X170431453Y-89912317D01*
X170431450Y-89912315D01*
X170248954Y-89814768D01*
X170050934Y-89754700D01*
X170050932Y-89754699D01*
X170050934Y-89754699D01*
X169845000Y-89734417D01*
X169639067Y-89754699D01*
X169441043Y-89814769D01*
X169330898Y-89873643D01*
X169258550Y-89912315D01*
X169258548Y-89912316D01*
X169258547Y-89912317D01*
X169098589Y-90043589D01*
X168967317Y-90203547D01*
X168869769Y-90386043D01*
X168809699Y-90584067D01*
X168789417Y-90790000D01*
X168360583Y-90790000D01*
X168340300Y-90584066D01*
X168280232Y-90386046D01*
X168182685Y-90203550D01*
X168130702Y-90140209D01*
X168051410Y-90043589D01*
X167891452Y-89912317D01*
X167891453Y-89912317D01*
X167891450Y-89912315D01*
X167708954Y-89814768D01*
X167510934Y-89754700D01*
X167510932Y-89754699D01*
X167510934Y-89754699D01*
X167305000Y-89734417D01*
X167099067Y-89754699D01*
X166901043Y-89814769D01*
X166790898Y-89873643D01*
X166718550Y-89912315D01*
X166718548Y-89912316D01*
X166718547Y-89912317D01*
X166558589Y-90043589D01*
X166427317Y-90203547D01*
X166329769Y-90386043D01*
X166269699Y-90584067D01*
X166249417Y-90790000D01*
X130982103Y-90790000D01*
X133522103Y-88250000D01*
X168789417Y-88250000D01*
X168809699Y-88455932D01*
X168809700Y-88455934D01*
X168869768Y-88653954D01*
X168967315Y-88836450D01*
X168967317Y-88836452D01*
X169098589Y-88996410D01*
X169195209Y-89075702D01*
X169258550Y-89127685D01*
X169441046Y-89225232D01*
X169639066Y-89285300D01*
X169639065Y-89285300D01*
X169657529Y-89287118D01*
X169845000Y-89305583D01*
X170050934Y-89285300D01*
X170248954Y-89225232D01*
X170431450Y-89127685D01*
X170591410Y-88996410D01*
X170722685Y-88836450D01*
X170820232Y-88653954D01*
X170880300Y-88455934D01*
X170900583Y-88250000D01*
X170880300Y-88044066D01*
X170820232Y-87846046D01*
X170722685Y-87663550D01*
X170670702Y-87600209D01*
X170591410Y-87503589D01*
X170431452Y-87372317D01*
X170431453Y-87372317D01*
X170431450Y-87372315D01*
X170248954Y-87274768D01*
X170050934Y-87214700D01*
X170050932Y-87214699D01*
X170050934Y-87214699D01*
X169845000Y-87194417D01*
X169639067Y-87214699D01*
X169441043Y-87274769D01*
X169330898Y-87333643D01*
X169258550Y-87372315D01*
X169258548Y-87372316D01*
X169258547Y-87372317D01*
X169098589Y-87503589D01*
X168967317Y-87663547D01*
X168869769Y-87846043D01*
X168809699Y-88044067D01*
X168789417Y-88250000D01*
X133522103Y-88250000D01*
X135115284Y-86656819D01*
X135176607Y-86623334D01*
X135202965Y-86620500D01*
X136932273Y-86620500D01*
X136971004Y-86628926D01*
X136971437Y-86627455D01*
X137118036Y-86670499D01*
X137118038Y-86670500D01*
X137118039Y-86670500D01*
X137261962Y-86670500D01*
X137261962Y-86670499D01*
X137314797Y-86654985D01*
X137408563Y-86627455D01*
X137408995Y-86628926D01*
X137447727Y-86620500D01*
X141692273Y-86620500D01*
X141731004Y-86628926D01*
X141731437Y-86627455D01*
X141878036Y-86670499D01*
X141878038Y-86670500D01*
X141878039Y-86670500D01*
X142021962Y-86670500D01*
X142021962Y-86670499D01*
X142074797Y-86654985D01*
X142168563Y-86627455D01*
X142168995Y-86628926D01*
X142207727Y-86620500D01*
X147334308Y-86620500D01*
X147334309Y-86620500D01*
X147424673Y-86596286D01*
X147448887Y-86589799D01*
X147551614Y-86530489D01*
X148102104Y-85979999D01*
X154700142Y-85979999D01*
X154700142Y-85980000D01*
X154720669Y-86201535D01*
X154720670Y-86201537D01*
X154781554Y-86415523D01*
X154781560Y-86415538D01*
X154880723Y-86614683D01*
X154880728Y-86614691D01*
X155014805Y-86792238D01*
X155179222Y-86942123D01*
X155179224Y-86942125D01*
X155368380Y-87059245D01*
X155368381Y-87059245D01*
X155368384Y-87059247D01*
X155575845Y-87139618D01*
X155794542Y-87180500D01*
X155794544Y-87180500D01*
X156017026Y-87180500D01*
X156017028Y-87180500D01*
X156235725Y-87139618D01*
X156443186Y-87059247D01*
X156632347Y-86942124D01*
X156796766Y-86792236D01*
X156930843Y-86614689D01*
X157030014Y-86415528D01*
X157090900Y-86201536D01*
X157111428Y-85980000D01*
X157090900Y-85758464D01*
X157030014Y-85544472D01*
X157009895Y-85504067D01*
X156930846Y-85345316D01*
X156930841Y-85345308D01*
X156796764Y-85167761D01*
X156632347Y-85017876D01*
X156632345Y-85017874D01*
X156443189Y-84900754D01*
X156443183Y-84900752D01*
X156235725Y-84820382D01*
X156017028Y-84779500D01*
X155794542Y-84779500D01*
X155575845Y-84820382D01*
X155444649Y-84871207D01*
X155368386Y-84900752D01*
X155368380Y-84900754D01*
X155179224Y-85017874D01*
X155179222Y-85017876D01*
X155014805Y-85167761D01*
X154880728Y-85345308D01*
X154880723Y-85345316D01*
X154781560Y-85544461D01*
X154781554Y-85544476D01*
X154720670Y-85758462D01*
X154720669Y-85758464D01*
X154700142Y-85979999D01*
X148102104Y-85979999D01*
X151585490Y-82496614D01*
X151585490Y-82496612D01*
X151595694Y-82486409D01*
X151595698Y-82486404D01*
X151768594Y-82313507D01*
X151821342Y-82282212D01*
X151837553Y-82277453D01*
X151837555Y-82277451D01*
X151837557Y-82277451D01*
X151958623Y-82199646D01*
X151958622Y-82199646D01*
X151958628Y-82199643D01*
X152052877Y-82090873D01*
X152095404Y-81997750D01*
X152120511Y-81961590D01*
X157655489Y-76426614D01*
X157714798Y-76323887D01*
X157714799Y-76323886D01*
X157745500Y-76209309D01*
X157745500Y-76034500D01*
X157765185Y-75967461D01*
X157817989Y-75921706D01*
X157869500Y-75910500D01*
X158547273Y-75910500D01*
X158586004Y-75918926D01*
X158586437Y-75917455D01*
X158733036Y-75960499D01*
X158733038Y-75960500D01*
X158733039Y-75960500D01*
X158876962Y-75960500D01*
X158876962Y-75960499D01*
X158929797Y-75944985D01*
X159023563Y-75917455D01*
X159023995Y-75918926D01*
X159062727Y-75910500D01*
X159787273Y-75910500D01*
X159826004Y-75918926D01*
X159826437Y-75917455D01*
X159973036Y-75960499D01*
X159973038Y-75960500D01*
X159973039Y-75960500D01*
X160116962Y-75960500D01*
X160116962Y-75960499D01*
X160255053Y-75919953D01*
X160376128Y-75842143D01*
X160470377Y-75733373D01*
X160530165Y-75602457D01*
X160550647Y-75460000D01*
X160530165Y-75317543D01*
X160470377Y-75186627D01*
X160376128Y-75077857D01*
X160255053Y-75000047D01*
X160255051Y-75000046D01*
X160255049Y-75000045D01*
X160255050Y-75000045D01*
X160116963Y-74959500D01*
X160116961Y-74959500D01*
X159973039Y-74959500D01*
X159973036Y-74959500D01*
X159826437Y-75002545D01*
X159826004Y-75001073D01*
X159787273Y-75009500D01*
X159062727Y-75009500D01*
X159023995Y-75001073D01*
X159023563Y-75002545D01*
X158876963Y-74959500D01*
X158876961Y-74959500D01*
X158733039Y-74959500D01*
X158733036Y-74959500D01*
X158586437Y-75002545D01*
X158586004Y-75001073D01*
X158547273Y-75009500D01*
X157552727Y-75009500D01*
X157513995Y-75001073D01*
X157513563Y-75002545D01*
X157366963Y-74959500D01*
X157366961Y-74959500D01*
X157223039Y-74959500D01*
X157223036Y-74959500D01*
X157084949Y-75000045D01*
X156963873Y-75077856D01*
X156869623Y-75186626D01*
X156869622Y-75186628D01*
X156809834Y-75317543D01*
X156789353Y-75460000D01*
X156809834Y-75602453D01*
X156809834Y-75602454D01*
X156809834Y-75602455D01*
X156809835Y-75602457D01*
X156833294Y-75653825D01*
X156844500Y-75705335D01*
X156844500Y-75912034D01*
X156824815Y-75979073D01*
X156808181Y-75999715D01*
X151486405Y-81321490D01*
X151433663Y-81352785D01*
X151417449Y-81357546D01*
X151417445Y-81357548D01*
X151296373Y-81435356D01*
X151202123Y-81544126D01*
X151202121Y-81544129D01*
X151159595Y-81637245D01*
X151134483Y-81673412D01*
X150948388Y-81859508D01*
X150948386Y-81859510D01*
X147124716Y-85683181D01*
X147063393Y-85716666D01*
X147037035Y-85719500D01*
X142207727Y-85719500D01*
X142168995Y-85711073D01*
X142168563Y-85712545D01*
X142021963Y-85669500D01*
X142021961Y-85669500D01*
X141878039Y-85669500D01*
X141878036Y-85669500D01*
X141731437Y-85712545D01*
X141731004Y-85711073D01*
X141692273Y-85719500D01*
X137447727Y-85719500D01*
X137408995Y-85711073D01*
X137408563Y-85712545D01*
X137261963Y-85669500D01*
X137261961Y-85669500D01*
X137118039Y-85669500D01*
X137118036Y-85669500D01*
X136971437Y-85712545D01*
X136971004Y-85711073D01*
X136932273Y-85719500D01*
X134905691Y-85719500D01*
X134791114Y-85750201D01*
X134791113Y-85750201D01*
X134791111Y-85750202D01*
X134772261Y-85761086D01*
X134772259Y-85761087D01*
X134688389Y-85809508D01*
X134688384Y-85809512D01*
X126689513Y-93808383D01*
X126689509Y-93808389D01*
X126630201Y-93911112D01*
X126630200Y-93911117D01*
X126599500Y-94025691D01*
X126599500Y-100044663D01*
X126588294Y-100096174D01*
X126564835Y-100147541D01*
X126564834Y-100147542D01*
X126544353Y-100290000D01*
X116075500Y-100290000D01*
X116075500Y-81950000D01*
X139054353Y-81950000D01*
X139074834Y-82092456D01*
X139094126Y-82134699D01*
X139134623Y-82223373D01*
X139228872Y-82332143D01*
X139349947Y-82409953D01*
X139349950Y-82409954D01*
X139349949Y-82409954D01*
X139488036Y-82450499D01*
X139488038Y-82450500D01*
X139488039Y-82450500D01*
X139631962Y-82450500D01*
X139631962Y-82450499D01*
X139770053Y-82409953D01*
X139891128Y-82332143D01*
X139924788Y-82293296D01*
X139983567Y-82255523D01*
X140018501Y-82250500D01*
X145914167Y-82250500D01*
X145981206Y-82270185D01*
X146001848Y-82286819D01*
X146160604Y-82445575D01*
X146194089Y-82506898D01*
X146195661Y-82550902D01*
X146194353Y-82559999D01*
X146214834Y-82702456D01*
X146243874Y-82766043D01*
X146274623Y-82833373D01*
X146368872Y-82942143D01*
X146489947Y-83019953D01*
X146489950Y-83019954D01*
X146489949Y-83019954D01*
X146628036Y-83060499D01*
X146628038Y-83060500D01*
X146628039Y-83060500D01*
X146771962Y-83060500D01*
X146771962Y-83060499D01*
X146910053Y-83019953D01*
X147031128Y-82942143D01*
X147125377Y-82833373D01*
X147185165Y-82702457D01*
X147205647Y-82560000D01*
X147185165Y-82417543D01*
X147125377Y-82286627D01*
X147031128Y-82177857D01*
X146910053Y-82100047D01*
X146910051Y-82100046D01*
X146910049Y-82100045D01*
X146910050Y-82100045D01*
X146771963Y-82059500D01*
X146771961Y-82059500D01*
X146675833Y-82059500D01*
X146608794Y-82039815D01*
X146588152Y-82023181D01*
X146274510Y-81709539D01*
X146259490Y-81700868D01*
X146244470Y-81692196D01*
X146225229Y-81681087D01*
X146205990Y-81669979D01*
X146180513Y-81663152D01*
X146129562Y-81649500D01*
X146129560Y-81649500D01*
X140018501Y-81649500D01*
X139951462Y-81629815D01*
X139924788Y-81606703D01*
X139891128Y-81567857D01*
X139770053Y-81490047D01*
X139770051Y-81490046D01*
X139770049Y-81490045D01*
X139770050Y-81490045D01*
X139631963Y-81449500D01*
X139631961Y-81449500D01*
X139488039Y-81449500D01*
X139488036Y-81449500D01*
X139349949Y-81490045D01*
X139228873Y-81567856D01*
X139134623Y-81676626D01*
X139134622Y-81676628D01*
X139074834Y-81807543D01*
X139054353Y-81950000D01*
X116075500Y-81950000D01*
X116075500Y-76410000D01*
X151489353Y-76410000D01*
X151509834Y-76552456D01*
X151534810Y-76607144D01*
X151569623Y-76683373D01*
X151663872Y-76792143D01*
X151784947Y-76869953D01*
X151784950Y-76869954D01*
X151784949Y-76869954D01*
X151923036Y-76910499D01*
X151923038Y-76910500D01*
X151923039Y-76910500D01*
X152066962Y-76910500D01*
X152066962Y-76910499D01*
X152205053Y-76869953D01*
X152326128Y-76792143D01*
X152420377Y-76683373D01*
X152456289Y-76604733D01*
X152481398Y-76568571D01*
X155583152Y-73466819D01*
X155644475Y-73433334D01*
X155670833Y-73430500D01*
X159646499Y-73430500D01*
X159713538Y-73450185D01*
X159740211Y-73473296D01*
X159773872Y-73512143D01*
X159894947Y-73589953D01*
X159894950Y-73589954D01*
X159894949Y-73589954D01*
X160033036Y-73630499D01*
X160033038Y-73630500D01*
X160033039Y-73630500D01*
X160176962Y-73630500D01*
X160176962Y-73630499D01*
X160315053Y-73589953D01*
X160436128Y-73512143D01*
X160530377Y-73403373D01*
X160590165Y-73272457D01*
X160610647Y-73130000D01*
X160590165Y-72987543D01*
X160530377Y-72856627D01*
X160436128Y-72747857D01*
X160315053Y-72670047D01*
X160315051Y-72670046D01*
X160315049Y-72670045D01*
X160315050Y-72670045D01*
X160176963Y-72629500D01*
X160176961Y-72629500D01*
X160033039Y-72629500D01*
X160033036Y-72629500D01*
X159894949Y-72670045D01*
X159773873Y-72747856D01*
X159740212Y-72786703D01*
X159681433Y-72824477D01*
X159646499Y-72829500D01*
X155455438Y-72829500D01*
X155379010Y-72849978D01*
X155310489Y-72889540D01*
X155310486Y-72889542D01*
X152310808Y-75889219D01*
X152249485Y-75922704D01*
X152179793Y-75917720D01*
X152161129Y-75908926D01*
X152110993Y-75879981D01*
X152110990Y-75879979D01*
X152085513Y-75873152D01*
X152034562Y-75859500D01*
X151955438Y-75859500D01*
X151917224Y-75869739D01*
X151879009Y-75879979D01*
X151879004Y-75879982D01*
X151810496Y-75919535D01*
X151810490Y-75919539D01*
X151780477Y-75949551D01*
X151759839Y-75966182D01*
X151663870Y-76027858D01*
X151663866Y-76027862D01*
X151569625Y-76136622D01*
X151569622Y-76136628D01*
X151509834Y-76267543D01*
X151489353Y-76410000D01*
X116075500Y-76410000D01*
X116075500Y-74429437D01*
X116095185Y-74362398D01*
X116147989Y-74316643D01*
X116217147Y-74306699D01*
X116280703Y-74335724D01*
X116311220Y-74375635D01*
X116454752Y-74673683D01*
X116461037Y-74683686D01*
X116634054Y-74959039D01*
X116844175Y-75222523D01*
X117082477Y-75460825D01*
X117345961Y-75670946D01*
X117631314Y-75850246D01*
X117934949Y-75996469D01*
X118131062Y-76065092D01*
X118253034Y-76107772D01*
X118253046Y-76107776D01*
X118581606Y-76182767D01*
X118916492Y-76220499D01*
X118916493Y-76220500D01*
X118916496Y-76220500D01*
X119253507Y-76220500D01*
X119253507Y-76220499D01*
X119588394Y-76182767D01*
X119916954Y-76107776D01*
X120235051Y-75996469D01*
X120538686Y-75850246D01*
X120824039Y-75670946D01*
X121087523Y-75460825D01*
X121325825Y-75222523D01*
X121535946Y-74959039D01*
X121715246Y-74673686D01*
X121861469Y-74370051D01*
X121972776Y-74051954D01*
X122047767Y-73723394D01*
X122085500Y-73388504D01*
X122085500Y-73051496D01*
X122047767Y-72716606D01*
X121972776Y-72388046D01*
X121861469Y-72069949D01*
X121715246Y-71766314D01*
X121535946Y-71480961D01*
X121325825Y-71217477D01*
X121087523Y-70979175D01*
X120824039Y-70769054D01*
X120577910Y-70614400D01*
X120538683Y-70589752D01*
X120240635Y-70446220D01*
X120188776Y-70399398D01*
X120170463Y-70331971D01*
X120191511Y-70265347D01*
X120245237Y-70220678D01*
X120294437Y-70210500D01*
X133989108Y-70210500D01*
X134048039Y-70210500D01*
X134061922Y-70211280D01*
G37*
%TD.AperFunction*%
%TD*%
M02*
